<?xml version="1.0" standalone="no"?>
<!DOCTYPE svg PUBLIC "-//W3C//DTD SVG 1.1//EN" "http://www.w3.org/Graphics/SVG/1.1/DTD/svg11.dtd" >
<svg xmlns="http://www.w3.org/2000/svg" xmlns:xlink="http://www.w3.org/1999/xlink" version="1.1">
<metadata>
Created by FontForge 20230101 at Fri May 13 22:36:28 2016
 By Unknown
Copyright (c) 2014 by Dino dos Santos. All rights reserved.
</metadata>
<defs>
<font id="Argos-Book" horiz-adv-x="1181" >
  <font-face 
    font-family="Argos Book"
    font-weight="300"
    font-stretch="normal"
    units-per-em="2048"
    panose-1="0 0 4 0 0 0 0 0 0 0"
    ascent="1536"
    descent="-512"
    x-height="1024"
    cap-height="1434"
    bbox="-141 -451 2142 1907"
    underline-thickness="102"
    underline-position="-204"
    unicode-range="U+0020-FB02"
  />
<missing-glyph horiz-adv-x="880" 
d="M102 492v40q0 196 144 281l-72 119h21l67 -111q79 39 178 39t178 -39l68 111h21l-74 -119q145 -85 145 -281v-40q0 -199 -145 -281l74 -119h-21l-68 111q-79 -39 -178 -39t-178 39l-67 -111h-21l72 119q-144 85 -144 281zM123 492q0 -85 27 -147t74 -96t100.5 -49.5
t115.5 -15.5t115.5 15.5t100.5 49.5t74.5 96t27.5 147v40q0 85 -27.5 147t-74.5 96t-100.5 49.5t-115.5 15.5t-115.5 -15.5t-100.5 -49.5t-74 -96t-27 -147v-40z" />
    <glyph glyph-name="fi" unicode="fi" horiz-adv-x="1019" 
d="M51 909v115h135v164q0 89 21.5 150.5t61.5 95t88.5 47.5t111.5 14q91 0 186 -31l-16 -110q-67 26 -150 26q-85 0 -122 -44.5t-37 -151.5v-160h254l-27 -115h-227v-909h-144v909h-135zM748 0v1024h143v-1024h-143zM748 1176v258h143v-258h-143z" />
    <glyph glyph-name="fl" unicode="fl" horiz-adv-x="1019" 
d="M51 909v115h135v164q0 89 21.5 150.5t61.5 95t88.5 47.5t111.5 14q91 0 186 -31l-16 -110q-67 26 -150 26q-85 0 -122 -44.5t-37 -151.5v-160h254l-27 -115h-227v-909h-144v909h-135zM748 0v1434l143 26v-1460h-143z" />
    <glyph glyph-name=".notdef" horiz-adv-x="880" 
d="M102 492v40q0 196 144 281l-72 119h21l67 -111q79 39 178 39t178 -39l68 111h21l-74 -119q145 -85 145 -281v-40q0 -199 -145 -281l74 -119h-21l-68 111q-79 -39 -178 -39t-178 39l-67 -111h-21l72 119q-144 85 -144 281zM123 492q0 -85 27 -147t74 -96t100.5 -49.5
t115.5 -15.5t115.5 15.5t100.5 49.5t74.5 96t27.5 147v40q0 85 -27.5 147t-74.5 96t-100.5 49.5t-115.5 15.5t-115.5 -15.5t-100.5 -49.5t-74 -96t-27 -147v-40z" />
    <glyph glyph-name=".null" horiz-adv-x="0" 
 />
    <glyph glyph-name="nonmarkingreturn" horiz-adv-x="682" 
 />
    <glyph glyph-name="space" unicode=" " horiz-adv-x="409" 
 />
    <glyph glyph-name="exclam" unicode="!" horiz-adv-x="462" 
d="M156 1434h149l-10 -1084h-129zM166 0v201h129v-201h-129z" />
    <glyph glyph-name="quotedbl" unicode="&#x22;" horiz-adv-x="823" 
d="M127 1233v201h131v-201l-22 -281h-86zM567 1233v201h129v-201l-22 -281h-84z" />
    <glyph glyph-name="numbersign" unicode="#" horiz-adv-x="1273" 
d="M90 424v111h258v364h-258v113h258v422h111v-422h358v422h111v-422h258v-113h-258v-364h258v-111h-258v-424h-111v424h-358v-424h-111v424h-258zM459 535h358v364h-358v-364z" />
    <glyph glyph-name="dollar" unicode="$" horiz-adv-x="1118" 
d="M98 438v21h150v-21q0 -171 89 -250t234 -79q139 0 220 65.5t81 185.5v11q0 60 -26 106.5t-69.5 77.5t-100 55.5t-118.5 46t-124.5 44.5t-119 54.5t-100 72.5t-69.5 103.5t-26 141.5v10q0 167 111.5 263.5t289.5 105.5v186h105v-186q176 -18 281.5 -131t105.5 -326
l-150 -24v24q0 330 -301 330q-136 0 -214.5 -60.5t-78.5 -177.5v-8q0 -60 26 -107t69.5 -77.5t100 -55t119 -46t125 -44t119 -54t100 -72t69.5 -103t26 -141.5v-12q0 -166 -110.5 -268t-286.5 -117v-187h-105v187q-88 6 -162 35.5t-133.5 83t-93 140t-33.5 197.5z" />
    <glyph glyph-name="percent" unicode="%" horiz-adv-x="1636" 
d="M152 944v242q0 132 78.5 200t191.5 68q54 0 101 -16t85.5 -47t61 -84t22.5 -121v-242q0 -68 -22.5 -121t-61 -84t-85.5 -47t-101 -16q-113 0 -191.5 68t-78.5 200zM254 952q0 -91 46.5 -132.5t121.5 -41.5q77 0 122.5 41.5t45.5 132.5v226q0 91 -45.5 132.5t-122.5 41.5
q-75 0 -121.5 -41.5t-46.5 -132.5v-226zM449 0l626 1434h109l-627 -1434h-108zM944 248v241q0 133 78 201t190 68q73 0 132.5 -27t99 -89.5t39.5 -152.5v-241q0 -90 -39.5 -152t-99 -89t-132.5 -27q-113 0 -190.5 68t-77.5 200zM1047 256q0 -91 45 -132.5t120 -41.5
q77 0 122.5 41.5t45.5 132.5v225q0 91 -45.5 132.5t-122.5 41.5q-75 0 -120 -41.5t-45 -132.5v-225z" />
    <glyph glyph-name="ampersand" unicode="&#x26;" horiz-adv-x="1333" 
d="M111 344v10q0 220 278 379q-196 185 -196 365v10q0 163 113.5 254.5t293.5 91.5q181 0 290 -91.5t109 -240.5q0 -63 -24 -119.5t-60.5 -98t-91 -79.5t-103 -63t-108.5 -49l351 -332q55 122 79 276h134q-45 -214 -123 -362l211 -201l-93 -106l-196 186
q-158 -194 -428 -194q-118 0 -215.5 40t-159 124t-61.5 200zM260 348q0 -118 86 -182t215 -64q205 0 326 156l-412 393q-215 -124 -215 -291v-12zM338 1098q0 -126 154 -271l34 -32q175 68 259.5 141t84.5 182q0 104 -73.5 161.5t-194.5 57.5q-118 0 -191 -60t-73 -167v-12z
" />
    <glyph glyph-name="quotesingle" unicode="'" horiz-adv-x="382" 
d="M127 1233v201h131v-201l-22 -281h-86z" />
    <glyph glyph-name="parenleft" unicode="(" horiz-adv-x="577" 
d="M94 717q0 260 88 533.5t236 490.5h112q-319 -542 -319 -1024t319 -1024h-112q-155 228 -239.5 494.5t-84.5 529.5z" />
    <glyph glyph-name="parenright" unicode=")" horiz-adv-x="577" 
d="M49 -307q318 545 318 1024t-318 1024h111q148 -217 235.5 -490t87.5 -534q0 -264 -84 -530.5t-239 -493.5h-111z" />
    <glyph glyph-name="asterisk" unicode="*" horiz-adv-x="694" 
d="M98 1092l187 96l-187 96l41 70l174 -111l-8 209h82l-12 -209l178 111l43 -70l-188 -96l188 -96l-43 -70l-178 115l12 -211h-82l8 211l-174 -115z" />
    <glyph glyph-name="plus" unicode="+" horiz-adv-x="911" 
d="M92 670v116h307v304h115v-304h305v-116h-305v-305h-115v305h-307z" />
    <glyph glyph-name="comma" unicode="," horiz-adv-x="395" 
d="M57 -281l76 281v201h129v-201l-98 -281h-107z" />
    <glyph glyph-name="hyphen" unicode="-" horiz-adv-x="909" 
d="M106 455v114h697v-114h-697z" />
    <glyph glyph-name="period" unicode="." horiz-adv-x="395" 
d="M133 0v201h129v-201h-129z" />
    <glyph glyph-name="slash" unicode="/" horiz-adv-x="952" 
d="M47 0l748 1434h112l-745 -1434h-115z" />
    <glyph glyph-name="zero" unicode="0" 
d="M129 440v553q0 119 36.5 209.5t101.5 144.5t146.5 80.5t178.5 26.5q96 0 177 -26.5t146 -80.5t101.5 -144.5t36.5 -209.5v-553q0 -119 -36.5 -209.5t-101.5 -144t-146 -80t-177 -26.5q-97 0 -178.5 26.5t-146.5 80t-101.5 144t-36.5 209.5zM279 438q0 -172 84.5 -250.5
t228.5 -78.5q142 0 226.5 78.5t84.5 250.5v557q0 172 -84.5 251t-226.5 79q-144 0 -228.5 -79t-84.5 -251v-557z" />
    <glyph glyph-name="one" unicode="1" horiz-adv-x="739" 
d="M35 1200l340 234h149v-1434h-149v1280l-264 -184z" />
    <glyph glyph-name="two" unicode="2" horiz-adv-x="1124" 
d="M96 0v135q0 74 27 141.5t72.5 120t104.5 100.5t123.5 90t129.5 82t123.5 81.5t104 84.5t72 95.5t26.5 109.5v17q0 131 -83 199.5t-221 68.5q-142 0 -226.5 -79t-84.5 -251v-24h-149v24q0 119 36.5 209.5t101 144t145.5 79.5t177 26q95 0 176.5 -25.5t143.5 -74
t97.5 -125.5t35.5 -174v-19q0 -74 -27 -141t-72 -119t-103.5 -100t-123.5 -89.5t-130 -81.5t-123.5 -81t-103.5 -83.5t-72 -94t-27 -107.5v-10h782v-129h-932z" />
    <glyph glyph-name="three" unicode="3" horiz-adv-x="1136" 
d="M98 426v20h150v-20q0 -164 86.5 -240.5t236.5 -76.5q136 0 224 70t88 190v32q0 131 -86 197t-226 66h-112v129h112q122 0 206.5 70.5t84.5 187.5v32q0 115 -81.5 178.5t-205.5 63.5q-139 0 -223 -79t-84 -251v-24l-149 24q0 119 36.5 209.5t100.5 143.5t144 79.5
t175 26.5q84 0 161.5 -23.5t139 -67.5t98 -113.5t36.5 -155.5v-41q0 -109 -57.5 -192.5t-153.5 -131.5q107 -43 170 -128.5t63 -205.5v-41q0 -113 -64 -199.5t-168 -130.5t-229 -44q-100 0 -184 26t-149.5 78.5t-102.5 139.5t-37 202z" />
    <glyph glyph-name="four" unicode="4" horiz-adv-x="1175" 
d="M49 381v129l699 924h149v-924h211l-25 -129h-186v-381h-149v381h-699zM215 510h533v692z" />
    <glyph glyph-name="five" unicode="5" horiz-adv-x="1124" 
d="M104 426v20h150v-20q0 -163 84.5 -240t226.5 -77q146 0 232 77.5t86 245.5v41q0 166 -84.5 245t-227.5 79q-94 0 -168 -34t-118 -85l-144 27v729h824l-25 -129h-655v-476q136 95 301 95q90 0 168.5 -26.5t141.5 -79.5t99.5 -141.5t36.5 -203.5v-41q0 -116 -37 -204.5
t-102 -141.5t-147.5 -79.5t-180.5 -26.5q-76 0 -143.5 16t-126 50.5t-101 86t-66.5 126.5t-24 167z" />
    <glyph glyph-name="six" unicode="6" horiz-adv-x="1155" 
d="M129 387v41v12v553q0 119 36.5 209.5t101.5 144.5t146.5 80.5t178.5 26.5t177.5 -24.5t145.5 -75.5t101.5 -139.5t36.5 -206.5l-150 -27v27q0 317 -311 317q-144 0 -228.5 -79t-84.5 -251v-268q126 107 317 107q95 0 175.5 -23.5t144.5 -70.5t100.5 -127t36.5 -185v-41
q0 -97 -37 -175.5t-100.5 -128.5t-146.5 -76.5t-177 -26.5q-95 0 -178 26.5t-147 76.5t-101 128.5t-37 175.5zM279 389q0 -135 87 -207.5t226 -72.5q138 0 224.5 72.5t86.5 207.5v35q0 143 -85 212t-226 69q-142 0 -227.5 -68.5t-85.5 -212.5v-35z" />
    <glyph glyph-name="seven" unicode="7" horiz-adv-x="991" 
d="M55 1305l27 129h866v-129q-536 -634 -536 -1305h-158q0 340 144.5 682t398.5 623h-742z" />
    <glyph glyph-name="eight" unicode="8" horiz-adv-x="1138" 
d="M111 360v41q0 106 61 193.5t172 134.5q-95 45 -152 126.5t-57 191.5v40q0 153 121.5 260t316.5 107q115 0 213.5 -42t162 -127.5t63.5 -197.5v-40q0 -110 -57 -192t-154 -128q108 -43 171.5 -127t63.5 -199v-41q0 -116 -64.5 -204t-168.5 -132t-230 -44t-230 44t-168 132
t-64 204zM260 377q0 -125 88 -196.5t225 -71.5t225.5 71.5t88.5 196.5v31q0 122 -88 189t-226 67q-137 0 -225 -67t-88 -189v-31zM281 1042q0 -117 84.5 -183t207.5 -66t208 66.5t85 182.5v33q0 117 -85 183.5t-208 66.5t-207.5 -66.5t-84.5 -183.5v-33z" />
    <glyph glyph-name="nine" unicode="9" horiz-adv-x="1155" 
d="M100 426v20h150v-20q0 -163 85.5 -240t227.5 -77q143 0 228.5 79t85.5 250v264q-125 -106 -320 -106q-95 0 -175.5 24t-144.5 72t-100.5 128.5t-36.5 185.5v41q0 128 65 222.5t168 139.5t230 45t230 -45t168 -139.5t65 -222.5v-41v-13v-553q0 -119 -37 -209.5t-102 -144
t-146.5 -80t-177.5 -26.5t-177.5 26t-146.5 78t-102 140t-37 202zM250 1008q0 -143 86 -213t227 -70t227.5 70t86.5 213v34q0 135 -88 209t-226 74t-225.5 -74t-87.5 -209v-34z" />
    <glyph glyph-name="colon" unicode=":" horiz-adv-x="403" 
d="M137 135v201h129v-201h-129zM137 627v200h129v-200h-129z" />
    <glyph glyph-name="semicolon" unicode=";" horiz-adv-x="473" 
d="M109 -281l75 281v201h129v-201l-98 -281h-106zM184 627v200h129v-200h-129z" />
    <glyph glyph-name="less" unicode="&#x3c;" horiz-adv-x="811" 
d="M86 668v108l586 219v-121l-420 -149v-4l420 -150v-118z" />
    <glyph glyph-name="equal" unicode="=" horiz-adv-x="966" 
d="M131 516v115h696v-115h-696zM131 817v115h696v-115h-696z" />
    <glyph glyph-name="greater" unicode="&#x3e;" horiz-adv-x="811" 
d="M139 453v118l420 150v4l-420 149v121l586 -219v-108z" />
    <glyph glyph-name="question" unicode="?" horiz-adv-x="1062" 
d="M70 971v24q0 119 36.5 209.5t101 144t145.5 79.5t177 26q97 0 178.5 -25t146.5 -76t101.5 -138t36.5 -203v-21q0 -107 -32 -188.5t-89.5 -131t-129.5 -75.5t-160 -31v-215h-129v334h77q314 0 314 311v21q0 309 -314 309q-68 0 -123.5 -18t-98.5 -56t-67 -103t-24 -153
v-24h-147zM453 0v201h129v-201h-129z" />
    <glyph glyph-name="at" unicode="@" horiz-adv-x="1425" 
d="M129 289v440q0 101 30 187t83.5 148t127 106t160.5 65.5t183 21.5q162 0 292.5 -59t210.5 -181t80 -288v-248q0 -162 -94.5 -248.5t-251.5 -91.5h-71l-11 99q-62 -113 -200 -113q-109 0 -173.5 73.5t-64.5 184.5v229q0 111 63.5 184.5t170.5 73.5q140 0 198 -110l31 96
h88v-602q95 10 150 61t55 164v248q0 104 -38.5 186.5t-104.5 133t-150 76.5t-180 26t-180 -26t-150 -76.5t-104.5 -133t-38.5 -186.5v-440q0 -208 116.5 -315t313.5 -107v-105q-247 0 -394 137t-147 390zM549 387q0 -73 40 -118.5t113 -45.5q74 0 117 56.5t43 148.5v143
q0 93 -43 149t-117 56q-73 0 -113 -45.5t-40 -118.5v-225z" />
    <glyph glyph-name="A" unicode="A" horiz-adv-x="1159" 
d="M29 0l473 1444h149l477 -1444h-157l-123 391h-537l-123 -391h-159zM352 520h457l-227 731z" />
    <glyph glyph-name="B" unicode="B" horiz-adv-x="1193" 
d="M158 0v1434h481q198 0 304 -86.5t106 -253.5v-68q0 -193 -160 -283q106 -38 163.5 -118.5t57.5 -202.5v-68q0 -175 -120.5 -264.5t-325.5 -89.5h-506zM307 129h352q302 0 302 240v55q0 240 -273 240h-381v-535zM307 793h320q272 0 272 229v53q0 120 -64 175t-208 55h-320
v-512z" />
    <glyph glyph-name="C" unicode="C" horiz-adv-x="1148" 
d="M129 440v553q0 119 36.5 209.5t101.5 144.5t146.5 80.5t178.5 26.5q76 0 143 -16t126 -51.5t101 -88t66.5 -130t24.5 -173.5l-150 -24v24q0 172 -84.5 251t-226.5 79q-144 0 -228.5 -79t-84.5 -251v-557q0 -172 84.5 -250.5t228.5 -78.5q142 0 226.5 78.5t84.5 250.5v21
h150v-21q0 -119 -36.5 -209t-101.5 -143.5t-146 -79.5t-177 -26q-97 0 -178.5 26.5t-146.5 80t-101.5 144t-36.5 209.5z" />
    <glyph glyph-name="D" unicode="D" horiz-adv-x="1220" 
d="M160 0v1434h448q98 0 182 -27.5t153 -83t109 -152.5t40 -225v-459q0 -128 -40 -224.5t-109 -152.5t-153 -83t-182 -27h-448zM309 129h299q69 0 127 18.5t105.5 58t74.5 110.5t27 167v467q0 96 -27 167t-74.5 111t-105.5 58.5t-127 18.5h-299v-1176z" />
    <glyph glyph-name="E" unicode="E" horiz-adv-x="1081" 
d="M160 0v1434h852v-129h-703v-512h631v-129h-631v-535h703v-129h-852z" />
    <glyph glyph-name="F" unicode="F" horiz-adv-x="1060" 
d="M160 0v1434h850v-129h-701v-551h557l-26 -129h-531v-625h-149z" />
    <glyph glyph-name="G" unicode="G" horiz-adv-x="1169" 
d="M129 440v553q0 119 36.5 209.5t101.5 144.5t146.5 80.5t178.5 26.5q76 0 143 -16t126 -51.5t101 -88t66.5 -130t24.5 -173.5v-24h-150v24q0 172 -84.5 251t-226.5 79q-144 0 -228.5 -79t-84.5 -251v-557q0 -172 84.5 -250.5t228.5 -78.5q142 0 226.5 78t84.5 247v156
h-332l27 125h455v-277q0 -119 -36.5 -209t-101.5 -143.5t-146 -79.5t-177 -26q-97 0 -178.5 26.5t-146.5 80t-101.5 144t-36.5 209.5z" />
    <glyph glyph-name="H" unicode="H" horiz-adv-x="1271" 
d="M160 0v1434h149v-641h654v641h149v-1434h-149v664h-654v-664h-149z" />
    <glyph glyph-name="I" unicode="I" horiz-adv-x="468" 
d="M160 0v1434h149v-1434h-149z" />
    <glyph glyph-name="J" unicode="J" horiz-adv-x="630" 
d="M49 0v125q142 0 212.5 77t70.5 238v994h149v-994q0 -440 -432 -440z" />
    <glyph glyph-name="K" unicode="K" horiz-adv-x="1064" 
d="M160 0v1434h149v-680l574 680h174l-602 -701l618 -733h-184l-580 700v-700h-149z" />
    <glyph glyph-name="L" unicode="L" horiz-adv-x="1038" 
d="M160 0v1434h149v-1305h692l-26 -129h-815z" />
    <glyph glyph-name="M" unicode="M" horiz-adv-x="1413" 
d="M158 0v1434h157l398 -697l391 697h151v-1434h-149v807q0 122 10 389l-350 -629h-125l-352 639q12 -255 12 -399v-807h-143z" />
    <glyph glyph-name="N" unicode="N" horiz-adv-x="1308" 
d="M158 0v1434h157l705 -1182q-10 188 -10 375v807h143v-1434h-152l-710 1180q10 -253 10 -373v-807h-143z" />
    <glyph glyph-name="O" unicode="O" 
d="M129 440v553q0 119 36.5 209.5t101.5 144.5t146.5 80.5t178.5 26.5q96 0 177 -26.5t146 -80.5t101.5 -144.5t36.5 -209.5v-553q0 -119 -36.5 -209.5t-101.5 -144t-146 -80t-177 -26.5q-97 0 -178.5 26.5t-146.5 80t-101.5 144t-36.5 209.5zM279 438q0 -172 84.5 -250.5
t228.5 -78.5q142 0 226.5 78.5t84.5 250.5v557q0 172 -84.5 251t-226.5 79q-144 0 -228.5 -79t-84.5 -251v-557z" />
    <glyph glyph-name="P" unicode="P" horiz-adv-x="1130" 
d="M160 0v1434h456q95 0 177 -26.5t146 -78t101 -137t37 -195.5v-32q0 -109 -37 -194t-101 -137t-146 -78t-177 -26h-307v-530h-149zM309 657h307q141 0 227.5 77t86.5 235v26q0 158 -86.5 234t-227.5 76h-307v-648z" />
    <glyph glyph-name="Q" unicode="Q" horiz-adv-x="1183" 
d="M129 422v590q0 108 36 193.5t99 139t146.5 81.5t181.5 28t181.5 -28t146.5 -81.5t99 -139t36 -193.5v-590q0 -140 -57.5 -238t-159.5 -151l213 -183l-82 -88l-269 228q-58 -10 -108 -10q-98 0 -181.5 28t-146.5 81.5t-99 139t-36 193.5zM276 422q0 -161 86.5 -238.5
t229.5 -77.5q141 0 227 77.5t86 238.5v590q0 160 -86 237.5t-227 77.5q-143 0 -229.5 -77.5t-86.5 -237.5v-590z" />
    <glyph glyph-name="R" unicode="R" 
d="M160 0v1434h475q206 0 321 -87.5t115 -267.5v-73q0 -242 -221 -316q145 -69 182 -303l62 -387h-150l-57 375q-11 68 -32 115.5t-46.5 74.5t-65.5 41.5t-77 18.5t-93 4h-264v-629h-149zM309 758h326q287 0 287 246v55q0 246 -287 246h-326v-547z" />
    <glyph glyph-name="S" unicode="S" horiz-adv-x="1120" 
d="M98 438v21h150v-21q0 -171 89 -250t234 -79q139 0 220 65.5t81 185.5v11q0 60 -26 106.5t-69.5 77.5t-100 55.5t-118.5 46t-124.5 44.5t-119 54.5t-100 72.5t-69.5 103.5t-26 141.5v10q0 178 124 274.5t318 96.5q97 0 176.5 -26t142 -79.5t97.5 -144t35 -209.5v-24h-150
v24q0 330 -301 330q-136 0 -214.5 -60.5t-78.5 -177.5v-8q0 -60 26 -107t69.5 -77.5t100 -55t119 -46t125 -44t119 -54t100 -72t69.5 -103t26 -141.5v-12q0 -120 -60.5 -209t-163 -133.5t-231.5 -44.5q-96 0 -178.5 26t-148.5 79t-104 143.5t-38 209.5z" />
    <glyph glyph-name="T" unicode="T" horiz-adv-x="942" 
d="M49 1305v129h844l-25 -129h-323v-1305h-148v1305h-348z" />
    <glyph glyph-name="U" unicode="U" horiz-adv-x="1222" 
d="M150 440v996h149v-998q0 -172 84.5 -250.5t228.5 -78.5q68 0 123 18t98.5 55.5t67 102.5t23.5 153v998h149v-996q0 -119 -36.5 -209.5t-101.5 -144t-146 -80t-177 -26.5q-97 0 -178.5 26.5t-146 80t-101 144t-36.5 209.5z" />
    <glyph glyph-name="V" unicode="V" horiz-adv-x="1159" 
d="M29 1434h159l392 -1252l391 1252h157l-477 -1444h-149z" />
    <glyph glyph-name="W" unicode="W" horiz-adv-x="1746" 
d="M37 1434h160l299 -1213l305 1213h155l301 -1217l299 1217h154l-381 -1444h-151l-304 1204l-305 -1204h-149z" />
    <glyph glyph-name="X" unicode="X" horiz-adv-x="1105" 
d="M2 0l471 727l-461 707h164l377 -584l377 584h164l-459 -707l469 -727h-164l-387 604l-387 -604h-164z" />
    <glyph glyph-name="Y" unicode="Y" horiz-adv-x="1136" 
d="M14 1434h160l391 -746l398 746h159l-485 -885v-549h-148v549z" />
    <glyph glyph-name="Z" unicode="Z" horiz-adv-x="1013" 
d="M53 0v129l719 1176h-698l26 129h846v-129l-719 -1176h729v-129h-903z" />
    <glyph glyph-name="bracketleft" unicode="[" horiz-adv-x="618" 
d="M156 -307v2048h397v-111h-287v-1827h287v-110h-397z" />
    <glyph glyph-name="backslash" unicode="\" horiz-adv-x="952" 
d="M45 1434h115l745 -1434h-112z" />
    <glyph glyph-name="bracketright" unicode="]" horiz-adv-x="618" 
d="M66 -197h286v1827h-286v111h397v-2048h-397v110z" />
    <glyph glyph-name="asciicircum" unicode="^" horiz-adv-x="991" 
d="M231 594l209 287h111l211 -287h-125l-141 192l-140 -192h-125z" />
    <glyph glyph-name="underscore" unicode="_" horiz-adv-x="894" 
d="M98 -41h697v-115h-697v115z" />
    <glyph glyph-name="grave" unicode="`" horiz-adv-x="780" 
d="M231 1413h134l196 -287h-112z" />
    <glyph glyph-name="a" unicode="a" horiz-adv-x="972" 
d="M76 272v11q0 80 32.5 139.5t104 104t193.5 68t294 26.5v94q0 54 -14.5 94.5t-36.5 63t-54.5 36t-62 17.5t-65.5 4q-141 0 -317 -82l-37 106q184 90 364 90q365 0 367 -333v-711h-125l-12 139q-29 -46 -68.5 -79t-83 -49.5t-82.5 -23.5t-80 -7q-104 0 -177.5 42.5
t-106.5 107t-33 142.5zM219 281q0 -86 59.5 -136.5t159.5 -50.5q114 0 188 71t74 195v154q-259 -4 -370 -56.5t-111 -168.5v-8z" />
    <glyph glyph-name="b" unicode="b" horiz-adv-x="997" 
d="M129 0v1434l143 26v-579q88 163 289 163q155 0 245.5 -104t90.5 -262v-332q0 -157 -92 -261.5t-246 -104.5q-206 0 -293 165l-12 -145h-125zM272 408q0 -141 64.5 -226.5t177.5 -85.5q115 0 177.5 70t62.5 182v328q0 112 -62.5 182t-177.5 70q-113 0 -177.5 -85.5
t-64.5 -226.5v-208z" />
    <glyph glyph-name="c" unicode="c" horiz-adv-x="868" 
d="M100 375v274q0 106 33 186t88 123.5t118 64.5t132 21q182 0 342 -92l-37 -104q-156 82 -280 82q-51 0 -93.5 -14t-79.5 -45t-58 -87t-21 -133v-278q0 -77 21 -133t58 -87t79.5 -45t93.5 -14q124 0 280 82l37 -104q-160 -92 -342 -92q-69 0 -132 21t-118 64.5t-88 123.5
t-33 186z" />
    <glyph glyph-name="d" unicode="d" horiz-adv-x="997" 
d="M100 346v332q0 158 90.5 262t245.5 104q204 0 289 -163v579l143 -26v-1434h-125l-12 145q-87 -165 -293 -165q-154 0 -246 104.5t-92 261.5zM244 348q0 -112 62 -182t177 -70q113 0 177.5 85.5t64.5 226.5v208q0 141 -64.5 226.5t-177.5 85.5q-115 0 -177 -70t-62 -182
v-328z" />
    <glyph glyph-name="e" unicode="e" horiz-adv-x="958" 
d="M100 375v276q0 104 32 182.5t88 123t122 66t143 21.5q76 0 141.5 -21.5t119.5 -66t85 -123t31 -182.5q0 -85 -12 -168h-606v-110q0 -76 23 -132.5t63 -87.5t85 -45t97 -14q161 0 328 82l20 -106q-185 -90 -375 -90q-55 0 -107.5 12t-103.5 41.5t-89 73.5t-61.5 113
t-23.5 155zM244 588h479q2 25 2 76q0 133 -67.5 199.5t-172.5 66.5t-173 -66.5t-68 -199.5v-76z" />
    <glyph glyph-name="f" unicode="f" horiz-adv-x="618" 
d="M51 909v115h135v164q0 89 21.5 150.5t61.5 95t88.5 47.5t111.5 14q91 0 186 -31l-16 -110q-67 26 -150 26q-85 0 -122 -44.5t-37 -151.5v-160h254l-27 -115h-227v-909h-144v909h-135z" />
    <glyph glyph-name="g" unicode="g" horiz-adv-x="997" 
d="M100 387v291q0 157 92 261.5t246 104.5q206 0 293 -165l12 145h125v-1059q0 -86 -22 -155t-57.5 -113t-84.5 -73.5t-100 -41.5t-106 -12q-188 0 -367 92l37 105q168 -82 307 -82q50 0 92.5 14t79 44.5t57.5 86.5t21 133v193q-45 -66 -120.5 -101t-168.5 -35
q-155 0 -245.5 104.5t-90.5 262.5zM244 389q0 -112 62 -182t177 -70q113 0 177.5 85.5t64.5 226.5v167q0 141 -64.5 226.5t-177.5 85.5q-115 0 -177 -70t-62 -182v-287z" />
    <glyph glyph-name="h" unicode="h" horiz-adv-x="1026" 
d="M129 0v1434l143 26v-588q48 89 127 130.5t172 41.5q82 0 145.5 -28.5t102.5 -78.5t58.5 -113t19.5 -136v-688h-143v680q0 109 -60 178.5t-172 69.5q-113 0 -181.5 -86t-68.5 -226v-616h-143z" />
    <glyph glyph-name="i" unicode="i" horiz-adv-x="401" 
d="M129 0v1024h143v-1024h-143zM129 1176v258h143v-258h-143z" />
    <glyph glyph-name="j" unicode="j" horiz-adv-x="401" 
d="M-141 -410l16 111q55 -16 117 -16q78 0 107.5 43.5t29.5 152.5v1143h143v-1147q0 -89 -18.5 -150.5t-54.5 -95t-79.5 -47.5t-101.5 -14q-78 0 -159 20zM129 1176v264h143v-264h-143z" />
    <glyph glyph-name="k" unicode="k" horiz-adv-x="954" 
d="M131 0v1434l143 26v-913l496 477h170l-516 -494l530 -530h-180l-500 498v-498h-143z" />
    <glyph glyph-name="l" unicode="l" horiz-adv-x="401" 
d="M129 0v1434l143 26v-1460h-143z" />
    <glyph glyph-name="m" unicode="m" horiz-adv-x="1650" 
d="M129 0v1024h125l12 -154q96 174 303 174q117 0 193 -55t110 -149q98 204 322 204q160 0 244 -101.5t84 -254.5v-688h-144v680q0 110 -59.5 179t-171.5 69q-113 0 -181.5 -86t-68.5 -226v-616h-143v680q0 109 -60 178.5t-172 69.5q-113 0 -181.5 -86t-68.5 -226v-616h-143
z" />
    <glyph glyph-name="n" unicode="n" horiz-adv-x="1026" 
d="M129 0v1024h125l12 -154q96 174 303 174q160 0 244 -101.5t84 -254.5v-688h-143v680q0 109 -60 178.5t-172 69.5q-113 0 -181.5 -86t-68.5 -226v-616h-143z" />
    <glyph glyph-name="o" unicode="o" horiz-adv-x="970" 
d="M100 373v278q0 104 32 182.5t88 123t122 66t143 21.5t143 -21.5t121 -66t87 -123t32 -182.5v-278q0 -104 -32 -182.5t-87 -123t-121 -66t-143 -21.5t-143 21.5t-122 66t-88 123t-32 182.5zM244 360q0 -133 68 -199.5t173 -66.5t172.5 66.5t67.5 199.5v304
q0 133 -67.5 199.5t-172.5 66.5t-173 -66.5t-68 -199.5v-304z" />
    <glyph glyph-name="p" unicode="p" horiz-adv-x="997" 
d="M129 -410v1434h125l12 -145q87 165 293 165q154 0 246 -104.5t92 -261.5v-332q0 -158 -90.5 -262t-245.5 -104q-201 0 -289 163v-553h-143zM272 408q0 -141 64.5 -226.5t177.5 -85.5q115 0 177.5 70t62.5 182v328q0 112 -62.5 182t-177.5 70q-113 0 -177.5 -85.5
t-64.5 -226.5v-208z" />
    <glyph glyph-name="q" unicode="q" horiz-adv-x="997" 
d="M100 346v332q0 157 92 261.5t246 104.5q206 0 293 -165l12 145h125v-1454l-143 27v546q-85 -163 -289 -163q-155 0 -245.5 104t-90.5 262zM244 348q0 -112 62 -182t177 -70q113 0 177.5 85.5t64.5 226.5v208q0 141 -64.5 226.5t-177.5 85.5q-115 0 -177 -70t-62 -182
v-328z" />
    <glyph glyph-name="r" unicode="r" horiz-adv-x="708" 
d="M129 0v1024h125l12 -172q93 192 299 192q71 0 129 -22l-43 -137q-57 24 -129 24q-114 0 -182 -82.5t-68 -220.5v-606h-143z" />
    <glyph glyph-name="s" unicode="s" horiz-adv-x="901" 
d="M76 53l39 113q68 -31 158 -51.5t169 -20.5q115 0 177.5 47.5t62.5 124.5v15q0 51 -32.5 87t-85 56.5t-115.5 37.5t-126 38.5t-115.5 51t-85 82.5t-32.5 126v24q0 113 92.5 186.5t272.5 73.5q34 0 66.5 -2.5t63.5 -8t52.5 -9.5t50.5 -12t40 -12t39 -14t30 -11l-41 -115
q-172 70 -295 70q-103 0 -165.5 -38t-62.5 -112v-14q0 -52 32.5 -87.5t85 -56t115.5 -37t126 -37.5t115.5 -50.5t85 -82.5t32.5 -126v-25q0 -134 -105 -209t-269 -75q-216 0 -375 73z" />
    <glyph glyph-name="t" unicode="t" horiz-adv-x="626" 
d="M49 909v115h135v205h144v-205h254l-27 -115h-227v-618q0 -110 28.5 -153.5t108.5 -43.5q59 0 117 17l16 -111q-81 -20 -160 -20q-58 0 -101.5 14t-79.5 47.5t-54.5 95t-18.5 150.5v622h-135z" />
    <glyph glyph-name="u" unicode="u" horiz-adv-x="1026" 
d="M129 336v688h143v-680q0 -110 59 -179t173 -69q113 0 181.5 86t68.5 226v616h143v-1024h-127l-10 154q-50 -90 -130 -132t-173 -42q-160 0 -244 101.5t-84 254.5z" />
    <glyph glyph-name="v" unicode="v" horiz-adv-x="923" 
d="M37 1024h145l283 -860l280 860h142l-357 -1034h-139z" />
    <glyph glyph-name="w" unicode="w" horiz-adv-x="1372" 
d="M43 1024h139l217 -862l215 862h142l217 -862l215 862h141l-278 -1034h-154l-211 862l-211 -862h-156z" />
    <glyph glyph-name="x" unicode="x" horiz-adv-x="897" 
d="M23 0l352 512l-352 512h143l283 -403l280 403h145l-354 -512l354 -512h-145l-280 403l-283 -403h-143z" />
    <glyph glyph-name="y" unicode="y" horiz-adv-x="917" 
d="M6 -410l12 111q78 -20 134 -20q83 0 126.5 41.5t83.5 156.5l33 92l-362 1053h145l289 -862l276 862h142l-387 -1124q-35 -102 -71 -168t-78.5 -101t-85.5 -48t-101 -13q-62 0 -156 20z" />
    <glyph glyph-name="z" unicode="z" horiz-adv-x="864" 
d="M59 0v115l572 794h-549l27 115h677v-115l-571 -794h592v-115h-748z" />
    <glyph glyph-name="braceleft" unicode="{" horiz-adv-x="579" 
d="M55 664v106q42 6 71.5 21t46 35t26 52t12 62t2.5 74q0 60 -13.5 213.5t-13.5 216.5q0 75 19 130t49 86.5t75.5 50t89.5 24.5t101 6v-111q-23 0 -39.5 -1t-42 -5t-43 -12t-37.5 -23.5t-32.5 -36.5t-20.5 -54t-8 -75q0 -62 13.5 -229t13.5 -231q0 -78 -22 -129t-56 -75.5
t-86 -39.5v-4q52 -15 86 -39.5t56 -75.5t22 -129q0 -64 -13.5 -233.5t-13.5 -231.5q0 -57 16 -98t36.5 -60.5t56 -30.5t57 -12.5t57.5 -1.5v-110q-57 0 -101 6t-89.5 24.5t-75.5 50t-49 86.5t-19 130q0 63 13.5 216.5t13.5 213.5q0 44 -2.5 74t-12 62t-26 52t-46 35
t-71.5 21z" />
    <glyph glyph-name="bar" unicode="|" horiz-adv-x="428" 
d="M158 -307v2048h110v-2048h-110z" />
    <glyph glyph-name="braceright" unicode="}" horiz-adv-x="579" 
d="M59 -197q36 0 57.5 1.5t57 12.5t56.5 30.5t37 60.5t16 98q0 62 -13.5 231.5t-13.5 233.5q0 113 41.5 167t120.5 77v4q-79 23 -120.5 77t-41.5 167q0 64 13.5 231t13.5 229q0 57 -16 98t-37 61.5t-56 32t-58 13.5t-57 2v111q57 0 101 -6t89.5 -24.5t75.5 -50t49 -86.5
t19 -130q0 -63 -13 -216.5t-13 -213.5q0 -56 4.5 -91.5t20 -70.5t48 -55t84.5 -27v-106q-52 -7 -84.5 -27t-48 -55t-20 -70.5t-4.5 -91.5q0 -60 13 -213.5t13 -216.5q0 -75 -19 -130t-49 -86.5t-75.5 -50t-89.5 -24.5t-101 -6v110z" />
    <glyph glyph-name="asciitilde" unicode="~" horiz-adv-x="860" 
d="M129 635q0 101 39 148.5t104 47.5q49 0 106.5 -22t106.5 -44t78 -22q34 0 51 18t17 70h100q0 -101 -39 -146.5t-104 -45.5q-49 0 -106 22t-106 44t-79 22q-34 0 -52 -19.5t-18 -72.5h-98z" />
    <glyph glyph-name="uni00A0" unicode="&#xa0;" horiz-adv-x="409" 
 />
    <glyph glyph-name="exclamdown" unicode="&#xa1;" horiz-adv-x="462" 
d="M156 -410l10 1084h129l10 -1084h-149zM166 823v201h129v-201h-129z" />
    <glyph glyph-name="cent" unicode="&#xa2;" horiz-adv-x="913" 
d="M100 375v274q0 96 27 170t73.5 119t100.5 70t117 32v189h104v-187q151 -11 291 -90l-37 -104q-156 82 -280 82q-51 0 -93.5 -14t-79.5 -45t-58 -87t-21 -133v-278q0 -77 21 -133t58 -87t79.5 -45t93.5 -14q124 0 280 82l37 -104q-140 -79 -291 -90v-187h-104v189
q-63 7 -117 32t-100.5 70t-73.5 119t-27 170z" />
    <glyph glyph-name="sterling" unicode="&#xa3;" horiz-adv-x="1191" 
d="M96 551v127h125v348q0 212 121 320t322 108q203 0 322.5 -111t119.5 -337v-21h-150v21q0 164 -77 241.5t-215 77.5q-139 0 -216 -73.5t-77 -229.5v-344h340l-27 -127h-313v-422h735v-129h-1006v129h121v422h-125z" />
    <glyph glyph-name="currency" unicode="&#xa4;" horiz-adv-x="1191" 
d="M96 551v127h125v348q0 212 121 320t322 108q203 0 322.5 -111t119.5 -337v-21h-150v21q0 164 -77 241.5t-215 77.5q-139 0 -216 -73.5t-77 -229.5v-344h340l-27 -127h-313v-422h735v-129h-1006v129h121v422h-125z" />
    <glyph glyph-name="yen" unicode="&#xa5;" horiz-adv-x="1210" 
d="M51 1434h160l391 -746l397 746h160l-459 -838h265l-27 -129h-264v-467h-150v467h-295v129h273z" />
    <glyph glyph-name="brokenbar" unicode="&#xa6;" horiz-adv-x="428" 
d="M158 -307v921h110v-921h-110zM158 819v922h110v-922h-110z" />
    <glyph glyph-name="section" unicode="&#xa7;" horiz-adv-x="1148" 
d="M127 604v78h895v-78h-2v-262q0 -112 -60 -194t-159.5 -122t-225.5 -40q-195 0 -320.5 105t-125.5 292v106h143v-106q0 -130 85 -202t218 -72q129 0 212 62.5t83 170.5v262h-743zM127 764v334q0 112 60.5 194t160 122t225.5 40t226 -44.5t160.5 -136t60.5 -216.5v-113
h-143v113q0 130 -86 203t-218 73q-129 0 -213 -63.5t-84 -171.5v-256h746v-78h-895z" />
    <glyph glyph-name="dieresis" unicode="&#xa8;" horiz-adv-x="1036" 
d="M227 1174v262h144v-262h-144zM664 1174v262h143v-262h-143z" />
    <glyph glyph-name="copyright" unicode="&#xa9;" horiz-adv-x="1611" 
d="M90 717q0 204 93 372.5t258 266.5t366 98t366 -98t258 -266.5t93 -372.5q0 -154 -55 -291t-149.5 -234.5t-228 -154.5t-284.5 -57t-284.5 57t-228 154.5t-149.5 234.5t-55 291zM154 717q0 -193 85.5 -347.5t234 -240.5t331.5 -86q184 0 333.5 86t235.5 240.5t86 347.5
q0 190 -86 345t-236 242t-333 87q-182 0 -331 -87t-234.5 -242t-85.5 -345zM522 514v406q0 112 81.5 175.5t201.5 63.5t201 -63.5t81 -175.5v-80h-92v80q0 76 -55.5 118.5t-134.5 42.5q-78 0 -132.5 -42.5t-54.5 -118.5v-406q0 -80 53.5 -121t133.5 -41t135 41t55 121v80h92
v-80q0 -112 -81 -176t-201 -64t-201.5 64t-81.5 176z" />
    <glyph glyph-name="ordfeminine" unicode="&#xaa;" horiz-adv-x="759" 
d="M98 530v74h566v-74h-566zM100 909v6q0 113 98 173.5t334 64.5v61q0 44 -13 73.5t-37 43t-48 18.5t-55 5q-94 0 -221 -58l-31 84q128 68 264 68q259 0 262 -238v-493h-104l-10 94q-69 -109 -215 -109q-109 0 -166.5 61t-57.5 146zM221 918q0 -55 39 -88t105 -33
q73 0 120 46.5t47 127.5v98q-168 -3 -239.5 -37t-71.5 -108v-6z" />
    <glyph glyph-name="guillemotleft" unicode="&#xab;" horiz-adv-x="1214" 
d="M63 457v106l515 402v-150l-377 -303v-4l377 -299v-150zM592 457v106l514 402v-150l-379 -303v-4l379 -299v-150z" />
    <glyph glyph-name="logicalnot" unicode="&#xac;" horiz-adv-x="1013" 
d="M147 670v114h730v-114h-3v-168h-114v168h-613z" />
    <glyph glyph-name="softhyphen" unicode="&#xad;" horiz-adv-x="909" 
d="M106 455v114h697v-114h-697z" />
    <glyph glyph-name="registered" unicode="&#xae;" horiz-adv-x="1611" 
d="M90 717q0 204 93 372.5t258 266.5t366 98t366 -98t258 -266.5t93 -372.5q0 -154 -55 -291t-149.5 -234.5t-228 -154.5t-284.5 -57t-284.5 57t-228 154.5t-149.5 234.5t-55 291zM154 717q0 -193 85.5 -347.5t234 -240.5t331.5 -86q184 0 333.5 86t235.5 240.5t86 347.5
q0 190 -86 345t-236 242t-333 87q-182 0 -331 -87t-234.5 -242t-85.5 -345zM553 287v860h303q117 0 183.5 -58t66.5 -165v-21q0 -160 -152 -201q52 -16 84 -58.5t45 -123.5l37 -233h-96l-35 227q-7 49 -22.5 80t-41.5 45t-52 18.5t-68 4.5h-158v-375h-94zM647 739h201
q77 0 119.5 38t42.5 112v29q0 73 -43 112t-119 39h-201v-330z" />
    <glyph glyph-name="macron" unicode="&#xaf;" horiz-adv-x="1087" 
d="M231 1184v98h625v-98h-625z" />
    <glyph glyph-name="degree" unicode="&#xb0;" horiz-adv-x="552" 
d="M98 1276q0 74 51.5 126t126.5 52q74 0 126.5 -52.5t52.5 -125.5t-52.5 -125.5t-126.5 -52.5q-75 0 -126.5 52t-51.5 126zM176 1276q0 -43 28.5 -72.5t71.5 -29.5q42 0 71.5 30t29.5 72t-29.5 71t-71.5 29q-43 0 -71.5 -28.5t-28.5 -71.5z" />
    <glyph glyph-name="plusminus" unicode="&#xb1;" horiz-adv-x="909" 
d="M98 342v115h711v-115h-711zM98 821v117h299v297h115v-297h297v-117h-297v-297h-115v297h-299z" />
    <glyph glyph-name="twosuperior" unicode="&#xb2;" horiz-adv-x="796" 
d="M66 430v105q0 67 30.5 124.5t78.5 99.5t106 79.5t116 72t105.5 69.5t77.5 80t30 95v12q0 88 -55 134.5t-149 46.5q-96 0 -152.5 -53.5t-56.5 -170.5v-18h-119v18q0 163 92.5 243.5t235.5 80.5q141 0 232 -74t91 -209v-14q0 -66 -30 -123.5t-78 -99.5t-105.5 -80
t-115.5 -72.5t-106 -68.5t-78 -77t-30 -91v-9h543v-100h-663z" />
    <glyph glyph-name="threesuperior" unicode="&#xb3;" horiz-adv-x="804" 
d="M66 729v14h120v-14q0 -110 57.5 -161.5t157.5 -51.5q93 0 152 47.5t59 128.5v21q0 88 -57.5 132t-153.5 44h-77v102h77q82 0 139.5 47t57.5 123v23q0 77 -53.5 120.5t-136.5 43.5q-95 0 -151 -54t-56 -170v-18l-121 18q0 163 92.5 243.5t235.5 80.5q125 0 216 -68.5
t91 -185.5v-29q0 -75 -40 -133t-108 -92q77 -30 120.5 -89t43.5 -142v-29q0 -120 -95 -192t-235 -72q-148 0 -241.5 78t-93.5 235z" />
    <glyph glyph-name="acute" unicode="&#xb4;" horiz-adv-x="780" 
d="M231 1126l197 287h133l-217 -287h-113z" />
    <glyph glyph-name="paragraph" unicode="&#xb6;" horiz-adv-x="1241" 
d="M131 971v65q0 94 36.5 170.5t100 125.5t146 75.5t176.5 26.5h170v-861h-170q-94 0 -176.5 26.5t-146 75.5t-100 125.5t-36.5 170.5zM854 0v1434h305v-111h-194v-1323h-111z" />
    <glyph glyph-name="periodcentered" unicode="&#xb7;" horiz-adv-x="403" 
d="M137 434v203h129v-203h-129z" />
    <glyph glyph-name="cedilla" unicode="&#xb8;" horiz-adv-x="886" 
d="M223 -416l17 76q72 -29 145 -29q70 0 99.5 28t29.5 69v10q0 45 -31.5 67.5t-103.5 22.5h-86v192h80v-110h33q93 0 150.5 -41t57.5 -125v-16q0 -85 -58.5 -132t-164.5 -47q-91 0 -168 35z" />
    <glyph glyph-name="onesuperior" unicode="&#xb9;" horiz-adv-x="587" 
d="M63 1272l250 162h119v-1004h-119v885l-192 -123z" />
    <glyph glyph-name="ordmasculine" unicode="&#xba;" horiz-adv-x="759" 
d="M98 530v74h566v-74h-566zM104 981v188q0 73 22.5 128t61.5 87.5t87.5 48t105.5 15.5q56 0 104 -16t87 -48t61 -87t22 -128v-188q0 -73 -22 -128t-61 -87t-87 -48t-104 -16q-57 0 -105.5 15.5t-87.5 48t-61.5 87.5t-22.5 128zM223 971q0 -87 44.5 -130.5t113.5 -43.5
t112.5 43t43.5 131v209q0 88 -43.5 131t-112.5 43t-113.5 -43.5t-44.5 -130.5v-209z" />
    <glyph glyph-name="guillemotright" unicode="&#xbb;" horiz-adv-x="1214" 
d="M111 59v150l376 299v4l-376 303v150l514 -402v-106zM639 59v150l377 299v4l-377 303v150l512 -402v-106z" />
    <glyph glyph-name="onequarter" unicode="&#xbc;" horiz-adv-x="1828" 
d="M68 1272l249 162h117v-1004h-117v885l-194 -123zM412 0l784 1434h123l-784 -1434h-123zM975 262v100l487 642h119v-642h148l-19 -100h-129v-262h-119v262h-487zM1108 362h354v459z" />
    <glyph glyph-name="onehalf" unicode="&#xbd;" horiz-adv-x="1869" 
d="M68 1272l249 162h117v-1004h-117v885l-194 -123zM412 0l784 1434h123l-784 -1434h-123zM1124 0v104q0 67 30.5 124.5t78.5 99.5t106 79.5t116 72.5t106 70t78 80t30 95v12q0 88 -55.5 134.5t-147.5 46.5q-97 0 -154 -53.5t-57 -170.5v-18h-118v18q0 164 92.5 244
t236.5 80q140 0 231 -74.5t91 -208.5v-14q0 -66 -30 -123.5t-78 -99.5t-106 -80t-115.5 -72.5t-105.5 -68.5t-78 -77t-30 -91v-9h543v-100h-664z" />
    <glyph glyph-name="threequarters" unicode="&#xbe;" horiz-adv-x="2033" 
d="M82 729v14h119v-14q0 -110 58.5 -161.5t158.5 -51.5q92 0 151.5 47.5t59.5 128.5v21q0 88 -58 132t-153 44h-78v102h78q81 0 138.5 47t57.5 123v23q0 77 -54.5 120.5t-135.5 43.5q-95 0 -152 -54t-57 -170v-18l-119 18q0 163 92.5 243.5t235.5 80.5q125 0 215 -68.5
t90 -185.5v-29q0 -76 -39 -134t-106 -91q76 -31 120 -89.5t44 -141.5v-29q0 -119 -96 -191.5t-234 -72.5q-148 0 -242 78t-94 235zM635 0l784 1434h123l-784 -1434h-123zM1198 262v100l485 642h121v-642h148l-21 -100h-127v-262h-121v262h-485zM1329 362h354v457z" />
    <glyph glyph-name="questiondown" unicode="&#xbf;" horiz-adv-x="1052" 
d="M70 12v21q0 107 32 188.5t89.5 131.5t129 76.5t158.5 31.5v213h131v-334h-80q-313 0 -313 -311v-21q0 -309 313 -309q144 0 229 79t85 251v24h149v-24q0 -96 -24.5 -173.5t-66.5 -130t-101 -88t-126.5 -51.5t-144.5 -16q-96 0 -177 25t-145.5 76t-101 138t-36.5 203z
M479 823v201h131v-201h-131z" />
    <glyph glyph-name="Agrave" unicode="&#xc0;" horiz-adv-x="1159" 
d="M29 0l473 1444h149l477 -1444h-157l-123 391h-537l-123 -391h-159zM317 1823h134l196 -287h-112zM352 520h457l-227 731z" />
    <glyph glyph-name="Aacute" unicode="&#xc1;" horiz-adv-x="1159" 
d="M29 0l473 1444h149l477 -1444h-157l-123 391h-537l-123 -391h-159zM352 520h457l-227 731zM528 1536l197 287h133l-217 -287h-113z" />
    <glyph glyph-name="Acircumflex" unicode="&#xc2;" horiz-adv-x="1159" 
d="M29 0l473 1444h149l477 -1444h-157l-123 391h-537l-123 -391h-159zM317 1536l209 287h111l211 -287h-125l-141 193l-140 -193h-125zM352 520h457l-227 731z" />
    <glyph glyph-name="Atilde" unicode="&#xc3;" horiz-adv-x="1159" 
d="M29 0l473 1444h149l477 -1444h-157l-123 391h-537l-123 -391h-159zM279 1548q0 102 39 149.5t104 47.5q49 0 106.5 -22t106.5 -44t78 -22q34 0 50.5 18t16.5 70h101q0 -101 -39.5 -148t-104.5 -47q-49 0 -106 22.5t-106 45t-79 22.5q-34 0 -51.5 -20t-17.5 -72h-98z
M352 520h457l-227 731z" />
    <glyph glyph-name="Adieresis" unicode="&#xc4;" horiz-adv-x="1159" 
d="M29 0l473 1444h149l477 -1444h-157l-123 391h-537l-123 -391h-159zM291 1583v262h143v-262h-143zM352 520h457l-227 731zM727 1583v262h143v-262h-143z" />
    <glyph glyph-name="Aring" unicode="&#xc5;" horiz-adv-x="1159" 
d="M29 0l473 1444h149l477 -1444h-157l-123 391h-537l-123 -391h-159zM352 520h457l-227 731zM358 1708q0 90 58 144.5t166 54.5q107 0 165 -54.5t58 -144.5q0 -89 -58 -143t-165 -54t-165.5 54t-58.5 143zM457 1708q0 -50 32 -82.5t93 -32.5t93 32.5t32 82.5q0 53 -31.5 84
t-93.5 31t-93.5 -31t-31.5 -84z" />
    <glyph glyph-name="AE" unicode="&#xc6;" horiz-adv-x="1675" 
d="M29 0l647 1434h930v-129h-703v-512h631v-129h-631v-535h703v-129h-852v391h-389l-177 -391h-159zM418 520h336v742z" />
    <glyph glyph-name="Ccedilla" unicode="&#xc7;" horiz-adv-x="1148" 
d="M129 440v553q0 119 36.5 209.5t101.5 144.5t146.5 80.5t178.5 26.5q76 0 143 -16t126 -51.5t101 -88t66.5 -130t24.5 -173.5l-150 -24v24q0 172 -84.5 251t-226.5 79q-144 0 -228.5 -79t-84.5 -251v-557q0 -172 84.5 -250.5t228.5 -78.5q142 0 226.5 78.5t84.5 250.5v21
h150v-21q0 -117 -35.5 -206t-98 -142t-141 -80.5t-172.5 -29.5v-70h33q94 0 151.5 -41t57.5 -125v-16q0 -85 -58.5 -132t-164.5 -47q-91 0 -168 35l16 76q73 -29 145 -29q70 0 100 28t30 69v10q0 45 -32 67.5t-104 22.5h-86v156q-85 8 -155.5 38.5t-125.5 84.5t-85.5 139
t-30.5 194z" />
    <glyph glyph-name="Egrave" unicode="&#xc8;" horiz-adv-x="1081" 
d="M160 0v1434h852v-129h-703v-512h631v-129h-631v-535h703v-129h-852zM303 1823h133l197 -287h-113z" />
    <glyph glyph-name="Eacute" unicode="&#xc9;" horiz-adv-x="1081" 
d="M160 0v1434h852v-129h-703v-512h631v-129h-631v-535h703v-129h-852zM514 1536l197 287h133l-217 -287h-113z" />
    <glyph glyph-name="Ecircumflex" unicode="&#xca;" horiz-adv-x="1081" 
d="M160 0v1434h852v-129h-703v-512h631v-129h-631v-535h703v-129h-852zM303 1536l209 287h111l211 -287h-125l-142 193l-139 -193h-125z" />
    <glyph glyph-name="Edieresis" unicode="&#xcb;" horiz-adv-x="1081" 
d="M160 0v1434h852v-129h-703v-512h631v-129h-631v-535h703v-129h-852zM276 1583v262h144v-262h-144zM713 1583v262h143v-262h-143z" />
    <glyph glyph-name="Igrave" unicode="&#xcc;" horiz-adv-x="468" 
d="M-29 1823h133l197 -287h-113zM160 0v1434h149v-1434h-149z" />
    <glyph glyph-name="Iacute" unicode="&#xcd;" horiz-adv-x="468" 
d="M160 0v1434h149v-1434h-149zM182 1536l197 287h133l-217 -287h-113z" />
    <glyph glyph-name="Icircumflex" unicode="&#xce;" horiz-adv-x="468" 
d="M-29 1536l209 287h111l211 -287h-125l-141 193l-140 -193h-125zM160 0v1434h149v-1434h-149z" />
    <glyph glyph-name="Idieresis" unicode="&#xcf;" horiz-adv-x="468" 
d="M-55 1583v262h143v-262h-143zM160 0v1434h149v-1434h-149zM381 1583v262h143v-262h-143z" />
    <glyph glyph-name="Eth" unicode="&#xd0;" horiz-adv-x="1220" 
d="M20 664v120h140v650h448q98 0 182 -27.5t153 -83t109 -152.5t40 -225v-459q0 -128 -40 -224.5t-109 -152.5t-153 -83t-182 -27h-448v664h-140zM309 129h299q69 0 127 18.5t105.5 58t74.5 110.5t27 167v467q0 96 -27 167t-74.5 111t-105.5 58.5t-127 18.5h-299v-521h236
v-120h-236v-535z" />
    <glyph glyph-name="Ntilde" unicode="&#xd1;" horiz-adv-x="1308" 
d="M158 0v1434h157l705 -1182q-10 188 -10 375v807h143v-1434h-152l-710 1180q10 -253 10 -373v-807h-143zM352 1548q0 101 39.5 149t104.5 48q49 0 106.5 -22t106 -44t77.5 -22q34 0 51 18t17 70h100q0 -101 -39 -148t-104 -47q-49 0 -106 22.5t-106 45t-79 22.5
q-34 0 -51.5 -20t-17.5 -72h-99z" />
    <glyph glyph-name="Ograve" unicode="&#xd2;" 
d="M129 440v553q0 119 36.5 209.5t101.5 144.5t146.5 80.5t178.5 26.5q96 0 177 -26.5t146 -80.5t101.5 -144.5t36.5 -209.5v-553q0 -119 -36.5 -209.5t-101.5 -144t-146 -80t-177 -26.5q-97 0 -178.5 26.5t-146.5 80t-101.5 144t-36.5 209.5zM279 438q0 -172 84.5 -250.5
t228.5 -78.5q142 0 226.5 78.5t84.5 250.5v557q0 172 -84.5 251t-226.5 79q-144 0 -228.5 -79t-84.5 -251v-557zM328 1823h133l196 -287h-112z" />
    <glyph glyph-name="Oacute" unicode="&#xd3;" 
d="M129 440v553q0 119 36.5 209.5t101.5 144.5t146.5 80.5t178.5 26.5q96 0 177 -26.5t146 -80.5t101.5 -144.5t36.5 -209.5v-553q0 -119 -36.5 -209.5t-101.5 -144t-146 -80t-177 -26.5q-97 0 -178.5 26.5t-146.5 80t-101.5 144t-36.5 209.5zM279 438q0 -172 84.5 -250.5
t228.5 -78.5q142 0 226.5 78.5t84.5 250.5v557q0 172 -84.5 251t-226.5 79q-144 0 -228.5 -79t-84.5 -251v-557zM539 1536l196 287h133l-217 -287h-112z" />
    <glyph glyph-name="Ocircumflex" unicode="&#xd4;" 
d="M129 440v553q0 119 36.5 209.5t101.5 144.5t146.5 80.5t178.5 26.5q96 0 177 -26.5t146 -80.5t101.5 -144.5t36.5 -209.5v-553q0 -119 -36.5 -209.5t-101.5 -144t-146 -80t-177 -26.5q-97 0 -178.5 26.5t-146.5 80t-101.5 144t-36.5 209.5zM279 438q0 -172 84.5 -250.5
t228.5 -78.5q142 0 226.5 78.5t84.5 250.5v557q0 172 -84.5 251t-226.5 79q-144 0 -228.5 -79t-84.5 -251v-557zM328 1536l209 287h110l211 -287h-125l-141 193l-139 -193h-125z" />
    <glyph glyph-name="Otilde" unicode="&#xd5;" 
d="M129 440v553q0 119 36.5 209.5t101.5 144.5t146.5 80.5t178.5 26.5q96 0 177 -26.5t146 -80.5t101.5 -144.5t36.5 -209.5v-553q0 -119 -36.5 -209.5t-101.5 -144t-146 -80t-177 -26.5q-97 0 -178.5 26.5t-146.5 80t-101.5 144t-36.5 209.5zM279 438q0 -172 84.5 -250.5
t228.5 -78.5q142 0 226.5 78.5t84.5 250.5v557q0 172 -84.5 251t-226.5 79q-144 0 -228.5 -79t-84.5 -251v-557zM289 1548q0 102 39 149.5t104 47.5q49 0 106.5 -22t106.5 -44t78 -22q34 0 51 18t17 70h100q0 -101 -39 -148t-104 -47q-49 0 -106 22.5t-106 45t-79 22.5
q-34 0 -52 -20t-18 -72h-98z" />
    <glyph glyph-name="Odieresis" unicode="&#xd6;" 
d="M129 440v553q0 119 36.5 209.5t101.5 144.5t146.5 80.5t178.5 26.5q96 0 177 -26.5t146 -80.5t101.5 -144.5t36.5 -209.5v-553q0 -119 -36.5 -209.5t-101.5 -144t-146 -80t-177 -26.5q-97 0 -178.5 26.5t-146.5 80t-101.5 144t-36.5 209.5zM279 438q0 -172 84.5 -250.5
t228.5 -78.5q142 0 226.5 78.5t84.5 250.5v557q0 172 -84.5 251t-226.5 79q-144 0 -228.5 -79t-84.5 -251v-557zM301 1583v262h143v-262h-143zM737 1583v262h144v-262h-144z" />
    <glyph glyph-name="multiply" unicode="&#xd7;" horiz-adv-x="913" 
d="M94 449l283 278l-283 279l84 81l279 -280l280 280l82 -81l-280 -279l280 -281l-82 -81l-280 280l-279 -278z" />
    <glyph glyph-name="Oslash" unicode="&#xd8;" 
d="M129 440v553q0 119 36.5 209.5t101.5 144.5t146.5 80.5t178.5 26.5q190 0 307 -94l64 115h94l-96 -177q92 -116 92 -305v-553q0 -119 -36.5 -209.5t-101.5 -144t-146 -80t-177 -26.5q-185 0 -305 92l-62 -113h-94l94 172q-96 117 -96 309zM279 438q0 -89 26 -162l524 957
q-77 92 -237 92q-144 0 -228.5 -79t-84.5 -251v-557zM354 197q82 -88 238 -88q142 0 226.5 78.5t84.5 250.5v557q0 82 -24 156z" />
    <glyph glyph-name="Ugrave" unicode="&#xd9;" horiz-adv-x="1222" 
d="M150 440v996h149v-998q0 -172 84.5 -250.5t228.5 -78.5q68 0 123 18t98.5 55.5t67 102.5t23.5 153v998h149v-996q0 -119 -36.5 -209.5t-101.5 -144t-146 -80t-177 -26.5q-97 0 -178.5 26.5t-146 80t-101 144t-36.5 209.5zM352 1823h133l197 -287h-113z" />
    <glyph glyph-name="Uacute" unicode="&#xda;" horiz-adv-x="1222" 
d="M150 440v996h149v-998q0 -172 84.5 -250.5t228.5 -78.5q68 0 123 18t98.5 55.5t67 102.5t23.5 153v998h149v-996q0 -119 -36.5 -209.5t-101.5 -144t-146 -80t-177 -26.5q-97 0 -178.5 26.5t-146 80t-101 144t-36.5 209.5zM563 1536l197 287h133l-217 -287h-113z" />
    <glyph glyph-name="Ucircumflex" unicode="&#xdb;" horiz-adv-x="1222" 
d="M150 440v996h149v-998q0 -172 84.5 -250.5t228.5 -78.5q68 0 123 18t98.5 55.5t67 102.5t23.5 153v998h149v-996q0 -119 -36.5 -209.5t-101.5 -144t-146 -80t-177 -26.5q-97 0 -178.5 26.5t-146 80t-101 144t-36.5 209.5zM352 1536l209 287h111l211 -287h-125l-142 193
l-139 -193h-125z" />
    <glyph glyph-name="Udieresis" unicode="&#xdc;" horiz-adv-x="1222" 
d="M150 440v996h149v-998q0 -172 84.5 -250.5t228.5 -78.5q68 0 123 18t98.5 55.5t67 102.5t23.5 153v998h149v-996q0 -119 -36.5 -209.5t-101.5 -144t-146 -80t-177 -26.5q-97 0 -178.5 26.5t-146 80t-101 144t-36.5 209.5zM326 1583v262h143v-262h-143zM762 1583v262h143
v-262h-143z" />
    <glyph glyph-name="Yacute" unicode="&#xdd;" horiz-adv-x="1136" 
d="M14 1434h160l391 -746l398 746h159l-485 -885v-549h-148v549zM514 1536l197 287h133l-217 -287h-113z" />
    <glyph glyph-name="Thorn" unicode="&#xde;" horiz-adv-x="1130" 
d="M160 0v1434h149v-254h307q95 0 177 -26.5t146 -78t101 -137t37 -195.5v-32q0 -110 -37 -195.5t-101 -137t-146 -78t-177 -26.5h-307v-274h-149zM309 403h307q141 0 227.5 76.5t86.5 235.5v24q0 159 -86.5 235.5t-227.5 76.5h-307v-648z" />
    <glyph glyph-name="germandbls" unicode="&#xdf;" horiz-adv-x="1171" 
d="M51 909v115h139v121q0 94 32.5 164t88.5 109.5t122.5 58t144.5 18.5q62 0 117 -11t105.5 -37.5t87 -66t58 -99.5t21.5 -136v-72q0 -204 -166 -297q123 -34 196.5 -121t73.5 -225v-59q0 -94 -35 -167t-96 -116.5t-137 -65.5t-164 -22h-203v111h197q61 0 113 14t94.5 44
t67 83t24.5 125v59q0 129 -87.5 196.5t-211.5 67.5h-199v115h94q59 0 110.5 13.5t93.5 41.5t66.5 77t24.5 114v92q0 114 -69 170.5t-176 56.5q-106 0 -175 -57t-69 -170v-1153h-144v909h-139z" />
    <glyph glyph-name="agrave" unicode="&#xe0;" horiz-adv-x="972" 
d="M76 272v11q0 80 32.5 139.5t104 104t193.5 68t294 26.5v94q0 54 -14.5 94.5t-36.5 63t-54.5 36t-62 17.5t-65.5 4q-141 0 -317 -82l-37 106q184 90 364 90q365 0 367 -333v-711h-125l-12 139q-29 -46 -68.5 -79t-83 -49.5t-82.5 -23.5t-80 -7q-104 0 -177.5 42.5
t-106.5 107t-33 142.5zM211 1413h133l197 -287h-113zM219 281q0 -86 59.5 -136.5t159.5 -50.5q114 0 188 71t74 195v154q-259 -4 -370 -56.5t-111 -168.5v-8z" />
    <glyph glyph-name="aacute" unicode="&#xe1;" horiz-adv-x="972" 
d="M76 272v11q0 80 32.5 139.5t104 104t193.5 68t294 26.5v94q0 54 -14.5 94.5t-36.5 63t-54.5 36t-62 17.5t-65.5 4q-141 0 -317 -82l-37 106q184 90 364 90q365 0 367 -333v-711h-125l-12 139q-29 -46 -68.5 -79t-83 -49.5t-82.5 -23.5t-80 -7q-104 0 -177.5 42.5
t-106.5 107t-33 142.5zM219 281q0 -86 59.5 -136.5t159.5 -50.5q114 0 188 71t74 195v154q-259 -4 -370 -56.5t-111 -168.5v-8zM420 1126l196 287h134l-218 -287h-112z" />
    <glyph glyph-name="acircumflex" unicode="&#xe2;" horiz-adv-x="972" 
d="M76 272v11q0 80 32.5 139.5t104 104t193.5 68t294 26.5v94q0 54 -14.5 94.5t-36.5 63t-54.5 36t-62 17.5t-65.5 4q-141 0 -317 -82l-37 106q184 90 364 90q365 0 367 -333v-711h-125l-12 139q-29 -46 -68.5 -79t-83 -49.5t-82.5 -23.5t-80 -7q-104 0 -177.5 42.5
t-106.5 107t-33 142.5zM211 1126l209 287h110l211 -287h-125l-141 193l-139 -193h-125zM219 281q0 -86 59.5 -136.5t159.5 -50.5q114 0 188 71t74 195v154q-259 -4 -370 -56.5t-111 -168.5v-8z" />
    <glyph glyph-name="atilde" unicode="&#xe3;" horiz-adv-x="972" 
d="M76 272v11q0 80 32.5 139.5t104 104t193.5 68t294 26.5v94q0 54 -14.5 94.5t-36.5 63t-54.5 36t-62 17.5t-65.5 4q-141 0 -317 -82l-37 106q184 90 364 90q365 0 367 -333v-711h-125l-12 139q-29 -46 -68.5 -79t-83 -49.5t-82.5 -23.5t-80 -7q-104 0 -177.5 42.5
t-106.5 107t-33 142.5zM172 1139q0 101 39 148.5t104 47.5q49 0 106.5 -22t106.5 -44t78 -22q34 0 51 18t17 70h100q0 -101 -39 -147.5t-104 -46.5q-49 0 -106 22.5t-106 45t-79 22.5q-34 0 -52 -20t-18 -72h-98zM219 281q0 -86 59.5 -136.5t159.5 -50.5q114 0 188 71
t74 195v154q-259 -4 -370 -56.5t-111 -168.5v-8z" />
    <glyph glyph-name="adieresis" unicode="&#xe4;" horiz-adv-x="972" 
d="M76 272v11q0 80 32.5 139.5t104 104t193.5 68t294 26.5v94q0 54 -14.5 94.5t-36.5 63t-54.5 36t-62 17.5t-65.5 4q-141 0 -317 -82l-37 106q184 90 364 90q365 0 367 -333v-711h-125l-12 139q-29 -46 -68.5 -79t-83 -49.5t-82.5 -23.5t-80 -7q-104 0 -177.5 42.5
t-106.5 107t-33 142.5zM184 1174v262h144v-262h-144zM219 281q0 -86 59.5 -136.5t159.5 -50.5q114 0 188 71t74 195v154q-259 -4 -370 -56.5t-111 -168.5v-8zM621 1174v262h143v-262h-143z" />
    <glyph glyph-name="aring" unicode="&#xe5;" horiz-adv-x="972" 
d="M76 272v11q0 80 32.5 139.5t104 104t193.5 68t294 26.5v94q0 54 -14.5 94.5t-36.5 63t-54.5 36t-62 17.5t-65.5 4q-141 0 -317 -82l-37 106q184 90 364 90q365 0 367 -333v-711h-125l-12 139q-29 -46 -68.5 -79t-83 -49.5t-82.5 -23.5t-80 -7q-104 0 -177.5 42.5
t-106.5 107t-33 142.5zM219 281q0 -86 59.5 -136.5t159.5 -50.5q114 0 188 71t74 195v154q-259 -4 -370 -56.5t-111 -168.5v-8zM252 1298q0 90 58 144.5t165 54.5t165 -54.5t58 -144.5q0 -89 -58 -142.5t-165 -53.5t-165 53.5t-58 142.5zM350 1298q0 -50 31.5 -82t93.5 -32
t93.5 32t31.5 82q0 53 -31.5 84t-93.5 31t-93.5 -31t-31.5 -84z" />
    <glyph glyph-name="ae" unicode="&#xe6;" horiz-adv-x="1558" 
d="M76 272v11q0 74 32.5 130t104 99.5t193.5 67t294 26.5v109q0 54 -14.5 94.5t-36.5 63t-54.5 36t-62 17.5t-65.5 4q-141 0 -317 -82l-37 106q184 90 364 90q239 0 307 -145q48 76 128 110.5t173 34.5q76 0 141.5 -21.5t119.5 -66t85 -123t31 -182.5q0 -71 -12 -153h-606
v-125q0 -77 23 -133t62.5 -87t85 -45t97.5 -14q161 0 328 82l20 -106q-185 -90 -375 -90q-49 0 -96 10t-94.5 32t-87.5 63t-64 97q-42 -93 -137.5 -147.5t-212.5 -54.5q-104 0 -177.5 42.5t-106.5 107t-33 142.5zM219 281q0 -86 59.5 -136.5t159.5 -50.5q114 0 188 71
t74 195v140q-256 -4 -368.5 -54.5t-112.5 -156.5v-8zM844 602h479q2 25 2 62q0 133 -67.5 199.5t-172.5 66.5t-173 -66.5t-68 -199.5v-62z" />
    <glyph glyph-name="ccedilla" unicode="&#xe7;" horiz-adv-x="868" 
d="M100 375v274q0 106 33 186t88 123.5t118 64.5t132 21q182 0 342 -92l-37 -104q-156 82 -280 82q-51 0 -93.5 -14t-79.5 -45t-58 -87t-21 -133v-278q0 -77 21 -133t58 -87t79.5 -45t93.5 -14q124 0 280 82l37 -104q-151 -90 -330 -92v-70h33q94 0 151.5 -41t57.5 -125v-16
q0 -85 -58.5 -132t-164.5 -47q-90 0 -168 35l16 76q72 -29 146 -29q70 0 99.5 28t29.5 69v10q0 45 -32 67.5t-104 22.5h-86v156q-61 10 -113 36t-96 71.5t-69 118t-25 165.5z" />
    <glyph glyph-name="egrave" unicode="&#xe8;" horiz-adv-x="958" 
d="M100 375v276q0 104 32 182.5t88 123t122 66t143 21.5q76 0 141.5 -21.5t119.5 -66t85 -123t31 -182.5q0 -85 -12 -168h-606v-110q0 -76 23 -132.5t63 -87.5t85 -45t97 -14q161 0 328 82l20 -106q-185 -90 -375 -90q-55 0 -107.5 12t-103.5 41.5t-89 73.5t-61.5 113
t-23.5 155zM223 1413h133l197 -287h-113zM244 588h479q2 25 2 76q0 133 -67.5 199.5t-172.5 66.5t-173 -66.5t-68 -199.5v-76z" />
    <glyph glyph-name="eacute" unicode="&#xe9;" horiz-adv-x="958" 
d="M100 375v276q0 104 32 182.5t88 123t122 66t143 21.5q76 0 141.5 -21.5t119.5 -66t85 -123t31 -182.5q0 -85 -12 -168h-606v-110q0 -76 23 -132.5t63 -87.5t85 -45t97 -14q161 0 328 82l20 -106q-185 -90 -375 -90q-55 0 -107.5 12t-103.5 41.5t-89 73.5t-61.5 113
t-23.5 155zM244 588h479q2 25 2 76q0 133 -67.5 199.5t-172.5 66.5t-173 -66.5t-68 -199.5v-76zM434 1126l197 287h133l-217 -287h-113z" />
    <glyph glyph-name="ecircumflex" unicode="&#xea;" horiz-adv-x="958" 
d="M100 375v276q0 104 32 182.5t88 123t122 66t143 21.5q76 0 141.5 -21.5t119.5 -66t85 -123t31 -182.5q0 -85 -12 -168h-606v-110q0 -76 23 -132.5t63 -87.5t85 -45t97 -14q161 0 328 82l20 -106q-185 -90 -375 -90q-55 0 -107.5 12t-103.5 41.5t-89 73.5t-61.5 113
t-23.5 155zM223 1126l209 287h111l211 -287h-125l-142 193l-139 -193h-125zM244 588h479q2 25 2 76q0 133 -67.5 199.5t-172.5 66.5t-173 -66.5t-68 -199.5v-76z" />
    <glyph glyph-name="edieresis" unicode="&#xeb;" horiz-adv-x="958" 
d="M100 375v276q0 104 32 182.5t88 123t122 66t143 21.5q76 0 141.5 -21.5t119.5 -66t85 -123t31 -182.5q0 -85 -12 -168h-606v-110q0 -76 23 -132.5t63 -87.5t85 -45t97 -14q161 0 328 82l20 -106q-185 -90 -375 -90q-55 0 -107.5 12t-103.5 41.5t-89 73.5t-61.5 113
t-23.5 155zM197 1174v262h143v-262h-143zM244 588h479q2 25 2 76q0 133 -67.5 199.5t-172.5 66.5t-173 -66.5t-68 -199.5v-76zM633 1174v262h143v-262h-143z" />
    <glyph glyph-name="igrave" unicode="&#xec;" horiz-adv-x="407" 
d="M-61 1413h133l196 -287h-112zM131 0v1024h143v-1024h-143z" />
    <glyph glyph-name="iacute" unicode="&#xed;" horiz-adv-x="407" 
d="M131 0v1024h143v-1024h-143zM150 1126l196 287h133l-217 -287h-112z" />
    <glyph glyph-name="icircumflex" unicode="&#xee;" horiz-adv-x="407" 
d="M-61 1126l208 287h111l211 -287h-125l-141 193l-140 -193h-124zM131 0v1024h143v-1024h-143z" />
    <glyph glyph-name="idieresis" unicode="&#xef;" horiz-adv-x="407" 
d="M-88 1174v262h143v-262h-143zM131 0v1024h143v-1024h-143zM348 1174v262h144v-262h-144z" />
    <glyph glyph-name="eth" unicode="&#xf0;" horiz-adv-x="970" 
d="M100 373v39q0 104 32 181.5t88 122t122 66t143 21.5h240v250q0 125 -59.5 191.5t-155.5 74.5v-178h-96v178h-236v115h236v204h96v-204q73 -3 135 -26.5t113 -69t80.5 -122t29.5 -176.5v-667q0 -104 -32 -182.5t-87 -123t-121 -66t-143 -21.5t-143 21.5t-122 66t-88 123
t-32 182.5zM244 360q0 -133 68 -199.5t173 -66.5t172.5 66.5t67.5 199.5v328h-240q-105 0 -173 -66.5t-68 -199.5v-62z" />
    <glyph glyph-name="ntilde" unicode="&#xf1;" horiz-adv-x="1026" 
d="M129 0v1024h125l12 -154q96 174 303 174q160 0 244 -101.5t84 -254.5v-688h-143v680q0 109 -60 178.5t-172 69.5q-113 0 -181.5 -86t-68.5 -226v-616h-143zM219 1139q0 101 39 148.5t104 47.5q49 0 106.5 -22t106.5 -44t78 -22q34 0 51 18t17 70h100q0 -101 -39 -147.5
t-104 -46.5q-49 0 -106 22.5t-106 45t-79 22.5q-34 0 -52 -20t-18 -72h-98z" />
    <glyph glyph-name="ograve" unicode="&#xf2;" horiz-adv-x="970" 
d="M100 373v278q0 104 32 182.5t88 123t122 66t143 21.5t143 -21.5t121 -66t87 -123t32 -182.5v-278q0 -104 -32 -182.5t-87 -123t-121 -66t-143 -21.5t-143 21.5t-122 66t-88 123t-32 182.5zM217 1413h133l197 -287h-113zM244 360q0 -133 68 -199.5t173 -66.5t172.5 66.5
t67.5 199.5v304q0 133 -67.5 199.5t-172.5 66.5t-173 -66.5t-68 -199.5v-304z" />
    <glyph glyph-name="oacute" unicode="&#xf3;" horiz-adv-x="970" 
d="M100 373v278q0 104 32 182.5t88 123t122 66t143 21.5t143 -21.5t121 -66t87 -123t32 -182.5v-278q0 -104 -32 -182.5t-87 -123t-121 -66t-143 -21.5t-143 21.5t-122 66t-88 123t-32 182.5zM244 360q0 -133 68 -199.5t173 -66.5t172.5 66.5t67.5 199.5v304
q0 133 -67.5 199.5t-172.5 66.5t-173 -66.5t-68 -199.5v-304zM428 1126l197 287h133l-217 -287h-113z" />
    <glyph glyph-name="ocircumflex" unicode="&#xf4;" horiz-adv-x="970" 
d="M100 373v278q0 104 32 182.5t88 123t122 66t143 21.5t143 -21.5t121 -66t87 -123t32 -182.5v-278q0 -104 -32 -182.5t-87 -123t-121 -66t-143 -21.5t-143 21.5t-122 66t-88 123t-32 182.5zM217 1126l209 287h111l211 -287h-125l-142 193l-139 -193h-125zM244 360
q0 -133 68 -199.5t173 -66.5t172.5 66.5t67.5 199.5v304q0 133 -67.5 199.5t-172.5 66.5t-173 -66.5t-68 -199.5v-304z" />
    <glyph glyph-name="otilde" unicode="&#xf5;" horiz-adv-x="970" 
d="M100 373v278q0 104 32 182.5t88 123t122 66t143 21.5t143 -21.5t121 -66t87 -123t32 -182.5v-278q0 -104 -32 -182.5t-87 -123t-121 -66t-143 -21.5t-143 21.5t-122 66t-88 123t-32 182.5zM178 1139q0 101 39.5 148.5t104.5 47.5q49 0 106.5 -22t106 -44t77.5 -22
q34 0 51 18t17 70h100q0 -101 -39 -147.5t-104 -46.5q-49 0 -106 22.5t-106 45t-79 22.5q-34 0 -52 -20t-18 -72h-98zM244 360q0 -133 68 -199.5t173 -66.5t172.5 66.5t67.5 199.5v304q0 133 -67.5 199.5t-172.5 66.5t-173 -66.5t-68 -199.5v-304z" />
    <glyph glyph-name="odieresis" unicode="&#xf6;" horiz-adv-x="970" 
d="M100 373v278q0 104 32 182.5t88 123t122 66t143 21.5t143 -21.5t121 -66t87 -123t32 -182.5v-278q0 -104 -32 -182.5t-87 -123t-121 -66t-143 -21.5t-143 21.5t-122 66t-88 123t-32 182.5zM190 1174v262h144v-262h-144zM244 360q0 -133 68 -199.5t173 -66.5t172.5 66.5
t67.5 199.5v304q0 133 -67.5 199.5t-172.5 66.5t-173 -66.5t-68 -199.5v-304zM627 1174v262h143v-262h-143z" />
    <glyph glyph-name="divide" unicode="&#xf7;" horiz-adv-x="976" 
d="M125 670v114h725v-114h-725zM424 354v201h129v-201h-129zM424 899v201h129v-201h-129z" />
    <glyph glyph-name="oslash" unicode="&#xf8;" horiz-adv-x="970" 
d="M98 -41l88 143q-86 99 -86 271v278q0 104 32 182.5t88 123t122 66t143 21.5q138 0 236 -65l53 86h96l-88 -143q86 -99 86 -271v-278q0 -104 -32 -182.5t-87 -123t-121 -66t-143 -21.5q-140 0 -237 67l-53 -88h-97zM244 360q0 -72 22 -127l387 635q-62 62 -168 62
q-105 0 -173 -66.5t-68 -199.5v-304zM315 158q67 -64 170 -64q105 0 172.5 66.5t67.5 199.5v304q0 70 -23 127z" />
    <glyph glyph-name="ugrave" unicode="&#xf9;" horiz-adv-x="1026" 
d="M129 336v688h143v-680q0 -110 59 -179t173 -69q113 0 181.5 86t68.5 226v616h143v-1024h-127l-10 154q-50 -90 -130 -132t-173 -42q-160 0 -244 101.5t-84 254.5zM250 1413h133l197 -287h-113z" />
    <glyph glyph-name="uacute" unicode="&#xfa;" horiz-adv-x="1026" 
d="M129 336v688h143v-680q0 -110 59 -179t173 -69q113 0 181.5 86t68.5 226v616h143v-1024h-127l-10 154q-50 -90 -130 -132t-173 -42q-160 0 -244 101.5t-84 254.5zM461 1126l196 287h134l-218 -287h-112z" />
    <glyph glyph-name="ucircumflex" unicode="&#xfb;" horiz-adv-x="1026" 
d="M129 336v688h143v-680q0 -110 59 -179t173 -69q113 0 181.5 86t68.5 226v616h143v-1024h-127l-10 154q-50 -90 -130 -132t-173 -42q-160 0 -244 101.5t-84 254.5zM250 1126l209 287h110l211 -287h-125l-141 193l-139 -193h-125z" />
    <glyph glyph-name="udieresis" unicode="&#xfc;" horiz-adv-x="1026" 
d="M129 336v688h143v-680q0 -110 59 -179t173 -69q113 0 181.5 86t68.5 226v616h143v-1024h-127l-10 154q-50 -90 -130 -132t-173 -42q-160 0 -244 101.5t-84 254.5zM223 1174v262h144v-262h-144zM659 1174v262h144v-262h-144z" />
    <glyph glyph-name="yacute" unicode="&#xfd;" horiz-adv-x="917" 
d="M6 -410l12 111q78 -20 134 -20q83 0 126.5 41.5t83.5 156.5l33 92l-362 1053h145l289 -862l276 862h142l-387 -1124q-35 -102 -71 -168t-78.5 -101t-85.5 -48t-101 -13q-62 0 -156 20zM406 1126l196 287h133l-217 -287h-112z" />
    <glyph glyph-name="thorn" unicode="&#xfe;" horiz-adv-x="997" 
d="M129 -410v1844l143 26v-579q94 163 293 163q154 0 243 -104t89 -262v-332q0 -158 -90.5 -262t-245.5 -104q-201 0 -289 163v-553h-143zM272 408q0 -141 64.5 -226.5t177.5 -85.5q115 0 177.5 70t62.5 182v328q0 112 -62.5 182t-177.5 70q-113 0 -177.5 -85.5
t-64.5 -226.5v-208z" />
    <glyph glyph-name="ydieresis" unicode="&#xff;" horiz-adv-x="917" 
d="M6 -410l12 111q78 -20 134 -20q83 0 126.5 41.5t83.5 156.5l33 92l-362 1053h145l289 -862l276 862h142l-387 -1124q-35 -102 -71 -168t-78.5 -101t-85.5 -48t-101 -13q-62 0 -156 20zM170 1174v262h143v-262h-143zM606 1174v262h144v-262h-144z" />
    <glyph glyph-name="dotlessi" unicode="&#x131;" horiz-adv-x="407" 
d="M131 0v1024h143v-1024h-143z" />
    <glyph glyph-name="Lslash" unicode="&#x141;" horiz-adv-x="1038" 
d="M16 586v129l144 47v672h149v-623l203 68v-129l-203 -68v-553h692l-26 -129h-815v633z" />
    <glyph glyph-name="lslash" unicode="&#x142;" horiz-adv-x="456" 
d="M23 582v127l133 51v674l143 26v-647l133 51v-125l-133 -51v-688h-143v633z" />
    <glyph glyph-name="OE" unicode="&#x152;" horiz-adv-x="1822" 
d="M129 440v553q0 119 36.5 209.5t101.5 144.5t146.5 80.5t178.5 26.5q111 0 204.5 -43.5t151.5 -130.5v154h805v-129h-700v-512h628v-129h-628v-535h700v-129h-805v154q-58 -87 -151.5 -130.5t-204.5 -43.5q-97 0 -178.5 26.5t-146.5 80t-101.5 144t-36.5 209.5zM279 438
q0 -172 84.5 -250.5t228.5 -78.5q142 0 226.5 78.5t84.5 250.5v557q0 172 -84.5 251t-226.5 79q-144 0 -228.5 -79t-84.5 -251v-557z" />
    <glyph glyph-name="oe" unicode="&#x153;" horiz-adv-x="1583" 
d="M100 373v278q0 104 32 182.5t88 123t122 66t143 21.5q99 0 183.5 -38.5t128.5 -124.5q46 86 130.5 124.5t182.5 38.5q76 0 141.5 -21.5t119.5 -66t85 -123t31 -182.5q0 -85 -12 -168h-607v-110q0 -76 23.5 -132.5t63.5 -87.5t85 -45t97 -14q160 0 327 82l21 -106
q-185 -90 -375 -90q-91 0 -177 38.5t-134 126.5q-46 -87 -130 -126t-184 -39q-77 0 -143 21.5t-122 66t-88 123t-32 182.5zM244 360q0 -133 68 -199.5t173 -66.5t172.5 66.5t67.5 199.5v304q0 133 -67.5 199.5t-172.5 66.5t-173 -66.5t-68 -199.5v-304zM868 588h480
q2 25 2 76q0 133 -67.5 199.5t-172.5 66.5t-173.5 -66.5t-68.5 -199.5v-76z" />
    <glyph glyph-name="Scaron" unicode="&#x160;" horiz-adv-x="1120" 
d="M98 438v21h150v-21q0 -171 89 -250t234 -79q139 0 220 65.5t81 185.5v11q0 60 -26 106.5t-69.5 77.5t-100 55.5t-118.5 46t-124.5 44.5t-119 54.5t-100 72.5t-69.5 103.5t-26 141.5v10q0 178 124 274.5t318 96.5q97 0 176.5 -26t142 -79.5t97.5 -144t35 -209.5v-24h-150
v24q0 330 -301 330q-136 0 -214.5 -60.5t-78.5 -177.5v-8q0 -60 26 -107t69.5 -77.5t100 -55t119 -46t125 -44t119 -54t100 -72t69.5 -103t26 -141.5v-12q0 -120 -60.5 -209t-163 -133.5t-231.5 -44.5q-96 0 -178.5 26t-148.5 79t-104 143.5t-38 209.5zM297 1823h125
l139 -193l141 193h125l-211 -287h-110z" />
    <glyph glyph-name="scaron" unicode="&#x161;" horiz-adv-x="901" 
d="M76 53l39 113q68 -31 158 -51.5t169 -20.5q115 0 177.5 47.5t62.5 124.5v15q0 51 -32.5 87t-85 56.5t-115.5 37.5t-126 38.5t-115.5 51t-85 82.5t-32.5 126v24q0 113 92.5 186.5t272.5 73.5q34 0 66.5 -2.5t63.5 -8t52.5 -9.5t50.5 -12.5t40 -12t39 -13.5t30 -11
l-41 -115q-172 70 -295 70q-103 0 -165.5 -38t-62.5 -112v-14q0 -52 32.5 -87.5t85 -56t115.5 -37t126 -37.5t115.5 -50.5t85 -82.5t32.5 -126v-25q0 -134 -105 -209t-269 -75q-216 0 -375 73zM193 1413h124l140 -192l141 192h125l-211 -287h-111z" />
    <glyph glyph-name="Ydieresis" unicode="&#x178;" horiz-adv-x="1136" 
d="M14 1434h160l391 -746l398 746h159l-485 -885v-549h-148v549zM276 1583v262h144v-262h-144zM713 1583v262h143v-262h-143z" />
    <glyph glyph-name="Zcaron" unicode="&#x17d;" horiz-adv-x="1013" 
d="M53 0v129l719 1176h-698l26 129h846v-129l-719 -1176h729v-129h-903zM244 1823h125l139 -193l141 193h125l-211 -287h-110z" />
    <glyph glyph-name="zcaron" unicode="&#x17e;" horiz-adv-x="864" 
d="M59 0v115l572 794h-549l27 115h677v-115l-571 -794h592v-115h-748zM176 1413h125l139 -192l142 192h125l-211 -287h-111z" />
    <glyph glyph-name="florin" unicode="&#x192;" horiz-adv-x="618" 
d="M-80 -410l10 111q60 -16 119 -16q80 0 108.5 43t28.5 153v1028h-135v115h135v150q0 98 16 163t48.5 98.5t72.5 46.5t99 13q82 0 176 -20l-10 -111q-60 16 -119 16q-80 0 -109.5 -43.5t-29.5 -152.5v-160h254l-27 -115h-227v-1018q0 -79 -11 -136t-29.5 -92.5t-49 -56.5
t-64.5 -28.5t-80 -7.5q-82 0 -176 20z" />
    <glyph glyph-name="circumflex" unicode="&#x2c6;" horiz-adv-x="991" 
d="M231 1126l209 287h111l211 -287h-125l-141 193l-140 -193h-125z" />
    <glyph glyph-name="caron" unicode="&#x2c7;" horiz-adv-x="991" 
d="M231 1413h125l140 -192l141 192h125l-211 -287h-111z" />
    <glyph glyph-name="breve" unicode="&#x2d8;" horiz-adv-x="980" 
d="M231 1413h101q0 -81 37 -133.5t123 -52.5q85 0 122 52.5t37 133.5h101q0 -134 -72 -210.5t-188 -76.5t-188.5 76.5t-72.5 210.5z" />
    <glyph glyph-name="dotaccent" unicode="&#x2d9;" horiz-adv-x="600" 
d="M227 1174v262h144v-262h-144z" />
    <glyph glyph-name="ring" unicode="&#x2da;" horiz-adv-x="927" 
d="M242 1298q0 90 58 144.5t165 54.5t165 -54.5t58 -144.5q0 -89 -58 -142.5t-165 -53.5t-165 53.5t-58 142.5zM340 1298q0 -50 31.5 -82t93.5 -32t93.5 32t31.5 82q0 53 -31.5 84t-93.5 31t-93.5 -31t-31.5 -84z" />
    <glyph glyph-name="ogonek" unicode="&#x2db;" horiz-adv-x="808" 
d="M217 -262q0 130 180 262h88q-30 -29 -41 -40t-39 -42t-40.5 -51.5t-24.5 -49.5t-12 -55q0 -47 27.5 -75.5t80.5 -28.5q56 0 111 31l16 -70q-27 -22 -72.5 -35.5t-87.5 -13.5q-81 0 -133.5 46.5t-52.5 121.5z" />
    <glyph glyph-name="tilde" unicode="&#x2dc;" horiz-adv-x="663" 
d="M123 1139q0 101 39 148.5t104 47.5q49 0 106.5 -22t106.5 -44t78 -22q34 0 51 18t17 70h100q0 -101 -39 -147.5t-104 -46.5q-49 0 -106 22.5t-106 45t-79 22.5q-34 0 -52 -20t-18 -72h-98z" />
    <glyph glyph-name="hungarumlaut" unicode="&#x2dd;" horiz-adv-x="987" 
d="M219 1126l187 287h122l-200 -287h-109zM459 1126l186 287h123l-201 -287h-108z" />
    <glyph glyph-name="Delta" unicode="&#x394;" horiz-adv-x="1159" 
d="M29 0l473 1444h149l477 -1444h-1099zM225 129h709l-352 1118z" />
    <glyph glyph-name="Omega" unicode="&#x3a9;" horiz-adv-x="1187" 
d="M129 0v129h252v168q-115 45 -182.5 151t-67.5 273v272q0 119 37 209.5t102 144.5t146.5 80.5t177.5 26.5t177.5 -26.5t146.5 -80.5t102 -144.5t37 -209.5v-272q0 -167 -67.5 -273t-182.5 -151v-168h252l-27 -129h-352v375q227 50 227 325v295q0 88 -24 153t-67 103
t-98.5 56t-123.5 18t-123.5 -18t-98.5 -56t-67 -103t-24 -153v-295q0 -275 227 -325v-375h-379z" />
    <glyph glyph-name="mu" unicode="&#x3bc;" horiz-adv-x="1026" 
d="M-141 -410l16 111q55 -16 117 -16q78 0 107.5 43.5t29.5 152.5v1143h143v-680q0 -110 59 -179t173 -69q113 0 181.5 86t68.5 226v616h143v-1024h-127l-10 154q-50 -90 -130 -132t-173 -42q-108 0 -185 49v-152q0 -89 -18.5 -150.5t-54.5 -95t-79.5 -47.5t-101.5 -14
q-78 0 -159 20z" />
    <glyph glyph-name="pi" unicode="&#x3c0;" horiz-adv-x="1142" 
d="M49 909v115h1045l-27 -115h-113v-909h-143v909h-481v-909h-144v909h-137z" />
    <glyph glyph-name="uni2000" unicode="&#x2000;" horiz-adv-x="953" 
 />
    <glyph glyph-name="uni2001" unicode="&#x2001;" horiz-adv-x="1907" 
 />
    <glyph glyph-name="uni2002" unicode="&#x2002;" horiz-adv-x="953" 
 />
    <glyph glyph-name="uni2003" unicode="&#x2003;" horiz-adv-x="1907" 
 />
    <glyph glyph-name="uni2004" unicode="&#x2004;" horiz-adv-x="635" 
 />
    <glyph glyph-name="uni2005" unicode="&#x2005;" horiz-adv-x="476" 
 />
    <glyph glyph-name="uni2006" unicode="&#x2006;" horiz-adv-x="317" 
 />
    <glyph glyph-name="uni2007" unicode="&#x2007;" horiz-adv-x="317" 
 />
    <glyph glyph-name="uni2008" unicode="&#x2008;" horiz-adv-x="238" 
 />
    <glyph glyph-name="uni2009" unicode="&#x2009;" horiz-adv-x="381" 
 />
    <glyph glyph-name="uni200A" unicode="&#x200a;" horiz-adv-x="105" 
 />
    <glyph glyph-name="uni2010" unicode="&#x2010;" horiz-adv-x="909" 
d="M106 455v114h697v-114h-697z" />
    <glyph glyph-name="uni2011" unicode="&#x2011;" horiz-adv-x="909" 
d="M106 455v114h697v-114h-697z" />
    <glyph glyph-name="figuredash" unicode="&#x2012;" horiz-adv-x="909" 
d="M106 455v114h697v-114h-697z" />
    <glyph glyph-name="endash" unicode="&#x2013;" horiz-adv-x="1216" 
d="M106 455v114h1004v-114h-1004z" />
    <glyph glyph-name="emdash" unicode="&#x2014;" horiz-adv-x="1421" 
d="M106 455v114h1209v-114h-1209z" />
    <glyph glyph-name="quoteleft" unicode="&#x2018;" horiz-adv-x="389" 
d="M133 952v482h88l43 -281v-201h-131z" />
    <glyph glyph-name="quoteright" unicode="&#x2019;" horiz-adv-x="387" 
d="M123 1233v201h129v-482h-86z" />
    <glyph glyph-name="quotesinglbase" unicode="&#x201a;" horiz-adv-x="395" 
d="M133 0v201h129v-482h-86z" />
    <glyph glyph-name="quotedblleft" unicode="&#x201c;" horiz-adv-x="829" 
d="M133 952v482h88l43 -281v-201h-131zM573 952v482h86l43 -281v-201h-129z" />
    <glyph glyph-name="quotedblright" unicode="&#x201d;" horiz-adv-x="825" 
d="M123 1233v201h129v-482h-86zM563 1233v201h129v-482h-86z" />
    <glyph glyph-name="quotedblbase" unicode="&#x201e;" horiz-adv-x="833" 
d="M133 0v201h129v-482h-86zM573 0v201h129v-482h-86z" />
    <glyph glyph-name="dagger" unicode="&#x2020;" horiz-adv-x="729" 
d="M80 1053v129h209v252h149v-252h211v-129h-211v-1053h-149v1053h-209z" />
    <glyph glyph-name="daggerdbl" unicode="&#x2021;" horiz-adv-x="729" 
d="M80 252v129h209v672h-209v129h209v252h149v-252h211v-129h-211v-672h211v-129h-211v-252h-149v252h-209z" />
    <glyph glyph-name="bullet" unicode="&#x2022;" horiz-adv-x="417" 
d="M137 629v217h144v-217h-144z" />
    <glyph glyph-name="ellipsis" unicode="&#x2026;" horiz-adv-x="1273" 
d="M133 0v201h129v-201h-129zM573 0v201h129v-201h-129zM1012 0v201h131v-201h-131z" />
    <glyph glyph-name="uni202F" unicode="&#x202f;" horiz-adv-x="381" 
 />
    <glyph glyph-name="perthousand" unicode="&#x2030;" horiz-adv-x="2293" 
d="M152 944v242q0 132 78.5 200t191.5 68q54 0 101 -16t85.5 -47t61 -84t22.5 -121v-242q0 -68 -22.5 -121t-61 -84t-85.5 -47t-101 -16q-113 0 -191.5 68t-78.5 200zM254 952q0 -91 46.5 -132.5t121.5 -41.5q77 0 122.5 41.5t45.5 132.5v226q0 91 -45.5 132.5t-122.5 41.5
q-75 0 -121.5 -41.5t-46.5 -132.5v-226zM449 0l626 1434h109l-627 -1434h-108zM944 248v241q0 133 78 201t190 68q73 0 132.5 -27t99 -89.5t39.5 -152.5v-241q0 -90 -39.5 -152t-99 -89t-132.5 -27q-113 0 -190.5 68t-77.5 200zM1047 256q0 -91 45 -132.5t120 -41.5
q77 0 122.5 41.5t45.5 132.5v225q0 91 -45.5 132.5t-122.5 41.5q-75 0 -120 -41.5t-45 -132.5v-225zM1602 248v241q0 90 39.5 152.5t98.5 89.5t132 27q113 0 191.5 -68.5t78.5 -200.5v-241q0 -132 -78.5 -200t-191.5 -68q-54 0 -101 16t-85.5 47t-61 84t-22.5 121zM1704 256
q0 -91 45.5 -132.5t122.5 -41.5q75 0 121.5 41.5t46.5 132.5v225q0 91 -46.5 132.5t-121.5 41.5q-77 0 -122.5 -41.5t-45.5 -132.5v-225z" />
    <glyph glyph-name="guilsinglleft" unicode="&#x2039;" horiz-adv-x="688" 
d="M63 457v106l515 402v-150l-377 -303v-4l377 -299v-150z" />
    <glyph glyph-name="guilsinglright" unicode="&#x203a;" horiz-adv-x="688" 
d="M111 59v150l376 299v4l-376 303v150l514 -402v-106z" />
    <glyph glyph-name="fraction" unicode="&#x2044;" horiz-adv-x="989" 
d="M41 0l784 1434h123l-784 -1434h-123z" />
    <glyph glyph-name="uni205F" unicode="&#x205f;" horiz-adv-x="476" 
 />
    <glyph glyph-name="Euro" unicode="&#x20ac;" horiz-adv-x="1245" 
d="M80 535v112h117v160h-117v113h117v73q0 119 36.5 209.5t101 144.5t145.5 80.5t177 26.5q77 0 144.5 -16t126.5 -51.5t101 -88t66.5 -130t24.5 -173.5l-149 -24v24q0 172 -85 251t-229 79q-142 0 -226.5 -79t-84.5 -251v-75h295l-27 -113h-268v-160h295l-27 -112h-268v-97
q0 -172 84.5 -250.5t226.5 -78.5q144 0 229 78.5t85 250.5v21h149v-21q0 -119 -36.5 -209t-101.5 -143.5t-146.5 -79.5t-178.5 -26q-96 0 -177 26.5t-145.5 80t-101 144t-36.5 209.5v95h-117z" />
    <glyph glyph-name="uni2113" unicode="&#x2113;" horiz-adv-x="921" 
d="M55 342l193 203v497q0 209 82 310q85 102 205 102q90 0 143 -55t53 -148q0 -106 -63 -229q-60 -123 -265 -360v-345q0 -154 48 -217q45 -59 122 -59q73 0 132 59q63 57 110 211h37q-44 -172 -139 -260q-74 -71 -183 -71q-89 0 -159 49.5t-101 134.5q-22 68 -22 219v106
l-168 -170zM403 717q275 319 275 495q0 85 -39 134t-98 49t-99 -58q-39 -56 -39 -225v-395z" />
    <glyph glyph-name="uni2116" unicode="&#x2116;" horiz-adv-x="2054" 
d="M158 0v1434h157l705 -1182q-10 188 -10 375v807h143v-1434h-152l-710 1180q10 -253 10 -373v-807h-143zM1393 530v74h565v-74h-565zM1399 981v188q0 142 78 210.5t198 68.5q56 0 104.5 -16t87.5 -48t61 -87t22 -128v-188q0 -73 -22 -128t-61 -87t-87.5 -48t-104.5 -16
q-120 0 -198 68.5t-78 210.5zM1518 971q0 -87 44 -130.5t113 -43.5t112.5 43t43.5 131v209q0 88 -43.5 131t-112.5 43t-113 -43.5t-44 -130.5v-209z" />
    <glyph glyph-name="trademark" unicode="&#x2122;" horiz-adv-x="1544" 
d="M102 1356v78h508v-78h-200v-783h-97v783h-211zM731 573v861h103l233 -414l231 414h97v-861h-97v476q0 93 9 237l-207 -373h-78l-207 375q8 -200 8 -239v-476h-92z" />
    <glyph glyph-name="estimated" unicode="&#x212e;" horiz-adv-x="1560" 
d="M96 715q0 157 51 294t141 235t219.5 154t280.5 56q140 0 262.5 -47.5t216.5 -138.5t150.5 -233t63.5 -320h-1082v-482q167 -159 389 -159q335 0 517 321l94 -53q-92 -131 -175.5 -207t-190 -115.5t-245.5 -39.5q-204 0 -362.5 97t-244 264t-85.5 374zM399 813h779v387
q-169 158 -392 158q-226 0 -387 -158v-387z" />
    <glyph glyph-name="partialdiff" unicode="&#x2202;" horiz-adv-x="1163" 
d="M152 373l4 39q15 104 58 181.5t105 122t131 66t146 21.5h240l34 250q19 133 -39 199.5t-163 66.5h-308l17 115h307q76 0 139.5 -21.5t112.5 -66.5t70 -123.5t6 -182.5l-92 -667q-15 -104 -58 -182.5t-104.5 -123t-130.5 -66t-146 -21.5t-140 21.5t-112.5 66t-70.5 123
t-6 182.5zM293 360q-20 -133 39.5 -199.5t163.5 -66.5t180.5 66t97.5 200l45 328h-239q-105 0 -182.5 -66.5t-96.5 -199.5z" />
    <glyph glyph-name="product" unicode="&#x220f;" horiz-adv-x="1271" 
d="M160 0v1434h952v-1434h-149v1305h-654v-1305h-149z" />
    <glyph glyph-name="summation" unicode="&#x2211;" horiz-adv-x="1032" 
d="M84 0v129l346 598l-346 578v129h850v-129h-696l340 -578l-340 -598h696v-129h-850z" />
    <glyph glyph-name="minus" unicode="&#x2212;" horiz-adv-x="901" 
d="M102 674v114h697v-114h-697z" />
    <glyph glyph-name="radical" unicode="&#x221a;" horiz-adv-x="1378" 
d="M102 674v114h508l191 -602l389 1248h160l-480 -1444h-149l-223 684h-396z" />
    <glyph glyph-name="infinity" unicode="&#x221e;" horiz-adv-x="1521" 
d="M104 512q0 140 86.5 226.5t227.5 86.5q59 0 109.5 -16.5t92 -49t72 -66.5t64.5 -83q69 102 149 158.5t199 56.5q67 0 121.5 -18.5t89.5 -49t58.5 -72t33.5 -84.5t10 -89t-10 -89t-33.5 -84.5t-58.5 -72t-89.5 -49t-121.5 -18.5q-119 0 -199 56.5t-149 158.5
q-34 -49 -64.5 -83t-72 -66.5t-92 -49t-109.5 -16.5q-141 0 -227.5 86.5t-86.5 226.5zM213 512q0 -96 58 -153.5t151 -57.5q36 0 69 12t58 29t52 47.5t45.5 56.5t43.5 66q-25 40 -43.5 66t-45.5 56.5t-52 47.5t-58 29t-69 12q-93 0 -151 -57.5t-58 -153.5zM821 512
q33 -50 57.5 -82t59 -64.5t74.5 -48.5t86 -16q107 0 159 61t52 150t-52 150t-159 61q-46 0 -86 -16t-74.5 -48.5t-59 -64.5t-57.5 -82z" />
    <glyph glyph-name="integral" unicode="&#x222b;" horiz-adv-x="735" 
d="M25 -410l16 111q55 -16 117 -16q80 0 108.5 43t28.5 153v1307q0 89 19 150.5t55 95t80 47.5t102 14q77 0 158 -20l-17 -111q-52 16 -117 16q-78 0 -107.5 -43.5t-29.5 -152.5v-1307q0 -89 -18.5 -150.5t-54.5 -95t-79.5 -47.5t-101.5 -14q-78 0 -159 20z" />
    <glyph glyph-name="approxequal" unicode="&#x2248;" horiz-adv-x="860" 
d="M129 481q0 102 39 149.5t104 47.5q49 0 106.5 -22t106.5 -44t78 -22q34 0 51 18t17 70h100q0 -101 -39 -147t-104 -46q-49 0 -106 22t-106 44t-79 22q-34 0 -52 -19.5t-18 -72.5h-98zM129 788q0 102 39 149.5t104 47.5q49 0 106.5 -22t106.5 -44t78 -22q34 0 51 18t17 70
h100q0 -101 -39 -146.5t-104 -45.5q-49 0 -106 22t-106 44t-79 22q-34 0 -52 -20t-18 -73h-98z" />
    <glyph glyph-name="notequal" unicode="&#x2260;" horiz-adv-x="960" 
d="M131 516v115h250l90 186h-340v115h393l144 297h110l-141 -297h190v-115h-245l-88 -186h333v-115h-389l-139 -291h-113l140 291h-195z" />
    <glyph glyph-name="lessequal" unicode="&#x2264;" horiz-adv-x="868" 
d="M141 342v115h586v-115h-586zM141 829v107l586 219v-119l-420 -151v-4l420 -148v-121z" />
    <glyph glyph-name="greaterequal" unicode="&#x2265;" horiz-adv-x="868" 
d="M141 342v115h584v-115h-584zM141 612v121l420 148v4l-420 151v119l584 -219v-107z" />
    <glyph glyph-name="lozenge" unicode="&#x25ca;" horiz-adv-x="970" 
d="M63 717l388 727h69l387 -727l-387 -727h-69zM176 717l307 -580h4l310 580l-310 579h-4z" />
    <glyph glyph-name="uni25FC" unicode="&#x25fc;" horiz-adv-x="1024" 
d="M0 0v1024h1024v-1024h-1024z" />
    <glyph glyph-name="d.sups" horiz-adv-x="718" 
d="M74 961v229q0 111 63 184.5t170 73.5q139 0 199 -111v383l119 21v-1024h-103l-10 98q-62 -113 -201 -113q-109 0 -173 74t-64 185zM193 963q0 -73 40 -118.5t113 -45.5q74 0 117 56t43 149v143q0 93 -43 149t-117 56q-73 0 -113 -45.5t-40 -118.5v-225z" />
    <glyph glyph-name="h.sups" horiz-adv-x="739" 
d="M94 717v1003l119 21v-408q67 115 207 115q112 0 168.5 -70t56.5 -178v-483h-119v475q0 71 -38 115.5t-111 44.5q-75 0 -119.5 -56t-44.5 -149v-430h-119z" />
    <glyph glyph-name="n.sups" horiz-adv-x="739" 
d="M94 717v717h103l10 -103q69 117 209 117q112 0 170.5 -70.5t58.5 -177.5v-483h-119v475q0 71 -38 115.5t-111 44.5q-75 0 -119.5 -56t-44.5 -149v-430h-119z" />
    <glyph glyph-name="r.sups" horiz-adv-x="501" 
d="M94 717v717h103l10 -119q67 133 207 133q55 0 88 -16l-35 -115q-41 18 -90 18q-75 0 -119.5 -53t-44.5 -145v-420h-119z" />
    <glyph glyph-name="s.sups" horiz-adv-x="632" 
d="M49 756l29 92q111 -51 231 -51q75 0 115.5 30.5t40.5 79.5v8q0 38 -30 64t-75.5 38t-98.5 29t-98.5 36t-75.5 60t-30 101v19q0 81 67.5 133.5t197.5 52.5q22 0 43.5 -1.5t38 -3.5t36 -6t31 -6.5t29 -8t24 -7.5t23 -7.5t18.5 -6.5l-30 -96q-114 49 -207 49q-68 0 -109 -24
t-41 -70v-11q0 -46 42 -73t102 -42t120 -34t102 -63t42 -115v-19q0 -93 -75.5 -147t-195.5 -54q-152 0 -266 54z" />
    <glyph glyph-name="t.sups" horiz-adv-x="421" 
d="M29 1339v95h90v143h121v-143h172l-21 -95h-151v-411q0 -73 19.5 -102t72.5 -29q42 0 78 10l12 -90q-65 -15 -117 -15q-89 0 -137.5 51t-48.5 171v415h-90z" />
    </font>
</defs>
</svg>
